<?xml version="1.0" encoding="UTF-8" standalone="no"?>
<!-- Created with Inkscape (http://www.inkscape.org/) -->

<svg
   xmlns:dc="http://purl.org/dc/elements/1.1/"
   xmlns:cc="http://creativecommons.org/ns#"
   xmlns:rdf="http://www.w3.org/1999/02/22-rdf-syntax-ns#"
   xmlns:svg="http://www.w3.org/2000/svg"
   xmlns="http://www.w3.org/2000/svg"
   xmlns:sodipodi="http://sodipodi.sourceforge.net/DTD/sodipodi-0.dtd"
   xmlns:inkscape="http://www.inkscape.org/namespaces/inkscape"
   id="svg3004"
   version="1.1"
   inkscape:version="0.48.2 r9819"
   width="465"
   height="395"
   xml:space="preserve"
   sodipodi:docname="DIMA_Logo_blau_en.svg"><metadata
     id="metadata3010"><rdf:RDF><cc:Work
         rdf:about=""><dc:format>image/svg+xml</dc:format><dc:type
           rdf:resource="http://purl.org/dc/dcmitype/StillImage" /><dc:title></dc:title></cc:Work></rdf:RDF></metadata><defs
     id="defs3008"><clipPath
       clipPathUnits="userSpaceOnUse"
       id="clipPath3020"><path
         d="M 0,0 372,0 372,316 0,316 0,0 z"
         id="path3022" /></clipPath><clipPath
       clipPathUnits="userSpaceOnUse"
       id="clipPath3086"><path
         d="m 0,0 371.999,0 0,315.652 L 0,315.652 0,0 z"
         id="path3088" /></clipPath><clipPath
       clipPathUnits="userSpaceOnUse"
       id="clipPath3098"><path
         d="M 0,0 372,0 372,316 0,316 0,0 z"
         id="path3100" /></clipPath></defs><sodipodi:namedview
     pagecolor="#ffffff"
     bordercolor="#666666"
     borderopacity="1"
     objecttolerance="10"
     gridtolerance="10"
     guidetolerance="10"
     inkscape:pageopacity="0"
     inkscape:pageshadow="2"
     inkscape:window-width="1404"
     inkscape:window-height="856"
     id="namedview3006"
     showgrid="false"
     inkscape:zoom="0.59746835"
     inkscape:cx="-141.57839"
     inkscape:cy="266.65406"
     inkscape:window-x="36"
     inkscape:window-y="0"
     inkscape:window-maximized="0"
     inkscape:current-layer="g3012" /><g
     id="g3012"
     inkscape:groupmode="layer"
     inkscape:label="DIMA_Logo_blau_en"
     transform="matrix(1.25,0,0,-1.25,0,395)"><g
       id="g3261"
       style="fill:#b51f12;fill-opacity:1"><g
         id="g3018"
         clip-path="url(#clipPath3020)"
         style="fill:#b51f12;fill-opacity:1"><path
           d="m 166.548,2.327 c 0.492,0 51.938,0 52.43,0.007 84.648,0.794 153.021,69.66 153.021,154.493 0,84.712 -68.176,153.497 -152.65,154.491 -0.616,0.008 -52.186,0.008 -52.801,0.008 l 0,-49.307 c 0.492,0 51.938,-0.003 52.43,-0.009 57.415,-0.793 103.714,-47.581 103.714,-105.183 0,-57.6 -46.299,-104.39 -103.714,-105.181 -0.492,-0.006 -51.938,-0.008 -52.43,-0.008 l 0,-49.311"
           style="fill:#b51f12;fill-opacity:1;fill-rule:nonzero;stroke:none"
           id="path3024"
           inkscape:connector-curvature="0" /><path
           d="m 147.175,33.697 -2.616,0.241 1.677,18.266 2.617,-0.242 -1.678,-18.265"
           style="fill:#b51f12;fill-opacity:1;fill-rule:nonzero;stroke:none"
           id="path3026"
           inkscape:connector-curvature="0" /><path
           d="m 139.139,39.469 -2.342,0.48 0.426,2.085 -0.052,0.013 c -1.025,-1.347 -2.96,-1.89 -4.788,-1.513 -3.398,0.697 -4.485,3.121 -3.76,6.645 l 1.599,7.8 2.421,-0.494 -1.395,-6.799 c -0.627,-3.063 -0.266,-4.692 1.82,-5.254 2.755,-0.564 4.445,1.395 5.099,4.587 l 1.247,6.074 2.417,-0.495 -2.692,-13.129"
           style="fill:#b51f12;fill-opacity:1;fill-rule:nonzero;stroke:none"
           id="path3028"
           inkscape:connector-curvature="0" /><path
           d="m 120.982,45.981 2.988,-1.017 -0.646,-1.892 -2.988,1.017 -0.398,-1.17 c -1.053,-3.087 -2.534,-4.831 -5.996,-3.652 -0.597,0.205 -1.071,0.447 -1.518,0.686 l 0.746,1.855 c 0.238,-0.193 0.67,-0.395 1.068,-0.531 2.016,-0.686 2.707,0.521 3.292,2.241 l 0.468,1.367 -3.361,1.147 0.645,1.892 3.362,-1.146 3.681,10.806 2.342,-0.797 -3.685,-10.806"
           style="fill:#b51f12;fill-opacity:1;fill-rule:nonzero;stroke:none"
           id="path3030"
           inkscape:connector-curvature="0" /><path
           d="m 110.451,60.746 c -2.598,1.274 -4.912,-0.525 -5.963,-2.673 -1.122,-2.291 -0.815,-5.193 1.548,-6.349 2.387,-1.168 4.868,0.37 5.987,2.664 1.051,2.149 1.051,5.076 -1.572,6.358 z m -5.293,-10.818 c -3.66,1.789 -4.822,5.637 -3.033,9.3 1.688,3.449 5.589,5.081 9.204,3.314 3.636,-1.778 4.744,-5.861 3.057,-9.309 -1.793,-3.661 -5.543,-5.106 -9.228,-3.305"
           style="fill:#b51f12;fill-opacity:1;fill-rule:nonzero;stroke:none"
           id="path3032"
           inkscape:connector-curvature="0" /><path
           d="m 94.995,55.845 -1.937,1.265 1.134,1.741 -0.042,0.028 c -1.313,-0.806 -3.05,-0.867 -4.239,-0.091 -0.616,0.401 -0.882,0.67 -1.265,1.047 l 1.21,1.847 c 0.272,-0.398 0.661,-0.716 1.014,-0.945 1.85,-1.207 4.212,-0.238 6.053,2.58 l 3.335,5.108 2.07,-1.351 -7.333,-11.229"
           style="fill:#b51f12;fill-opacity:1;fill-rule:nonzero;stroke:none"
           id="path3034"
           inkscape:connector-curvature="0" /><path
           d="m 84.609,62.638 -1.708,1.554 1.306,1.439 -0.039,0.034 c -1.741,-0.507 -3.211,-0.13 -4.665,1.195 -1.147,1.044 -1.762,2.67 -1.068,4.487 -1.971,-0.799 -3.926,0.057 -4.819,0.868 -2.526,2.3 -1.952,4.762 0.008,6.92 l 5.783,6.352 1.825,-1.662 -5.374,-5.905 c -1.114,-1.223 -2.218,-3.024 -0.742,-4.367 1.864,-1.699 4.263,-0.544 5.944,1.3 l 4.544,4.994 1.826,-1.663 -5.374,-5.905 c -1.117,-1.225 -2.221,-3.023 -0.746,-4.366 1.865,-1.699 4.267,-0.543 5.945,1.301 l 4.545,4.994 1.825,-1.663 -9.016,-9.907"
           style="fill:#b51f12;fill-opacity:1;fill-rule:nonzero;stroke:none"
           id="path3036"
           inkscape:connector-curvature="0" /><path
           d="m 66.92,91.314 c 0.32,-0.417 0.597,-0.869 0.917,-1.286 0.815,-1.064 2.996,-3.569 4.876,-2.13 1.129,0.863 0.903,2.414 0.215,3.311 -1.485,1.942 -3.48,2.04 -5.067,0.824 L 66.92,91.314 z m -0.365,-9.52 c -1.337,0.534 -2.65,1.384 -3.688,2.743 -2.333,3.048 -1.771,5.431 1.132,7.652 l 4.405,3.374 c 1.213,0.926 1.744,1.401 2.025,1.681 l 1.406,-1.838 -1.379,-1.053 0.034,-0.043 c 0.998,0.036 2.779,-0.256 4.154,-2.054 1.76,-2.296 1.986,-4.671 -0.332,-6.446 -2.673,-2.046 -5.748,0.238 -7.295,2.263 -0.592,0.772 -1.009,1.315 -1.558,2.121 -1.837,-1.405 -2.266,-2.794 -0.763,-4.755 0.845,-1.108 2.176,-1.979 3.448,-2.261 l -1.589,-1.384"
           style="fill:#b51f12;fill-opacity:1;fill-rule:nonzero;stroke:none"
           id="path3038"
           inkscape:connector-curvature="0" /><path
           d="m 54.81,101.037 1.811,-3.057 6.313,3.735 c 1.333,0.791 1.578,2.035 1.001,3.009 -0.389,0.656 -0.872,1.011 -1.264,1.207 l 1.81,1.072 c 0.417,-0.396 0.987,-0.945 1.389,-1.623 1.297,-2.198 1.062,-4.171 -1.247,-5.538 l -6.744,-3.99 1.539,-2.6 -1.72,-1.02 -1.539,2.604 -2.671,-1.581 -1.937,1.725 3.35,1.984 -1.811,3.052 1.72,1.021"
           style="fill:#b51f12;fill-opacity:1;fill-rule:nonzero;stroke:none"
           id="path3040"
           inkscape:connector-curvature="0" /><path
           d="m 51.059,104.051 -1.077,2.227 12.074,5.842 1.077,-2.224 -12.074,-5.845 z m -3.841,1.063 1.213,-2.512 -2.508,-1.212 -1.216,2.507 2.511,1.217"
           style="fill:#b51f12;fill-opacity:1;fill-rule:nonzero;stroke:none"
           id="path3042"
           inkscape:connector-curvature="0" /><path
           d="m 56.488,121.246 c -0.966,2.727 -3.875,3.065 -6.132,2.268 -2.405,-0.851 -4.218,-3.138 -3.343,-5.618 0.887,-2.505 3.735,-3.144 6.141,-2.294 2.257,0.797 4.305,2.892 3.334,5.644 z M 45.13,117.229 c -1.361,3.845 0.504,7.405 4.348,8.763 3.621,1.282 7.553,-0.286 8.893,-4.08 1.352,-3.821 -0.722,-7.51 -4.339,-8.789 -3.845,-1.362 -7.535,0.237 -8.902,4.106"
           style="fill:#b51f12;fill-opacity:1;fill-rule:nonzero;stroke:none"
           id="path3044"
           inkscape:connector-curvature="0" /><path
           d="m 41.831,129.012 -0.44,2.351 2.091,0.395 -0.009,0.051 c -1.632,0.442 -2.869,2.029 -3.213,3.863 -0.64,3.411 1.192,5.335 4.731,6 l 7.828,1.472 0.458,-2.429 -6.822,-1.283 c -3.075,-0.579 -4.448,-1.533 -4.177,-3.676 0.519,-2.763 2.973,-3.583 6.177,-2.983 l 6.099,1.146 0.455,-2.429 -13.178,-2.478"
           style="fill:#b51f12;fill-opacity:1;fill-rule:nonzero;stroke:none"
           id="path3046"
           inkscape:connector-curvature="0" /><path
           d="m 33.352,156.279 0.326,4.324 15.64,4.593 -14.78,6.787 0.329,4.323 18.296,-1.382 -0.197,-2.622 -15.833,1.199 -0.006,-0.055 15.378,-7.251 -0.194,-2.568 -16.292,-4.862 -0.005,-0.051 15.836,-1.195 -0.199,-2.622 -18.299,1.382"
           style="fill:#b51f12;fill-opacity:1;fill-rule:nonzero;stroke:none"
           id="path3048"
           inkscape:connector-curvature="0" /><path
           d="m 50.314,188.703 c -0.139,-0.507 -0.326,-1.001 -0.465,-1.509 -0.35,-1.294 -1.014,-4.544 1.268,-5.163 1.37,-0.374 2.465,0.746 2.76,1.838 0.641,2.36 -0.494,4.001 -2.422,4.523 l -1.141,0.311 z m -7.779,-5.486 c -0.387,1.385 -0.51,2.943 -0.064,4.589 1.006,3.706 3.238,4.705 6.766,3.748 l 5.353,-1.451 c 1.47,-0.398 2.17,-0.534 2.562,-0.589 l -0.604,-2.229 -1.675,0.452 -0.015,-0.051 c 0.637,-0.769 1.485,-2.363 0.89,-4.544 -0.757,-2.789 -2.504,-4.412 -5.319,-3.648 -3.247,0.881 -3.299,4.707 -2.629,7.169 0.254,0.939 0.432,1.596 0.74,2.523 -2.233,0.604 -3.594,0.103 -4.243,-2.281 -0.365,-1.347 -0.251,-2.928 0.302,-4.113 l -2.064,0.425"
           style="fill:#b51f12;fill-opacity:1;fill-rule:nonzero;stroke:none"
           id="path3050"
           inkscape:connector-curvature="0" /><path
           d="m 46.165,198.727 0.957,2.193 1.952,-0.853 0.021,0.049 c -1.104,1.285 -1.234,3.29 -0.486,5.001 1.388,3.181 3.983,3.74 7.285,2.3 l 7.299,-3.187 -0.987,-2.265 -6.361,2.777 c -2.866,1.25 -4.538,1.233 -5.522,-0.689 -1.126,-2.578 0.444,-4.639 3.431,-5.943 l 5.685,-2.48 -0.986,-2.265 -12.288,5.362"
           style="fill:#b51f12;fill-opacity:1;fill-rule:nonzero;stroke:none"
           id="path3052"
           inkscape:connector-curvature="0" /><path
           d="m 64.002,218.102 c -0.278,-0.445 -0.601,-0.863 -0.879,-1.31 -0.708,-1.138 -2.284,-4.059 -0.274,-5.311 1.204,-0.751 2.574,0.006 3.171,0.964 1.295,2.075 0.682,3.975 -1.013,5.032 l -1.005,0.625 z m -9.032,-3.009 c 0.031,1.438 0.362,2.965 1.267,4.415 2.031,3.256 4.457,3.57 7.556,1.637 l 4.708,-2.934 c 1.291,-0.808 1.922,-1.14 2.284,-1.302 l -1.225,-1.964 -1.469,0.918 -0.031,-0.044 c 0.387,-0.922 0.739,-2.69 -0.455,-4.609 -1.53,-2.454 -3.672,-3.502 -6.147,-1.958 -2.855,1.78 -1.802,5.458 -0.453,7.622 0.516,0.825 0.878,1.404 1.436,2.202 -1.961,1.224 -3.409,1.137 -4.719,-0.961 -0.736,-1.181 -1.083,-2.731 -0.896,-4.024 l -1.856,1.002"
           style="fill:#b51f12;fill-opacity:1;fill-rule:nonzero;stroke:none"
           id="path3054"
           inkscape:connector-curvature="0" /><path
           d="m 74.216,231.641 c -2.13,1.799 -4.789,2.36 -6.488,0.352 -1.611,-1.908 -0.341,-4.602 1.407,-6.077 1.927,-1.63 4.532,-1.971 6.026,-0.204 1.493,1.766 0.962,4.317 -0.945,5.929 z m 6.153,-1.966 c 3.114,-2.629 3.546,-5.748 0.438,-9.423 -0.918,-1.085 -1.856,-1.91 -3.809,-3.081 l -1.578,1.677 c 1.886,0.886 2.876,1.529 4.047,2.915 1.68,1.989 1.337,4.311 -0.833,6.144 l -1.005,0.848 -0.033,-0.039 c 0.386,-1.704 -0.212,-3.47 -1.316,-4.777 -2.477,-2.931 -6.089,-2.358 -8.741,-0.117 -2.632,2.224 -4.189,6.086 -1.573,9.179 1.527,1.807 3.039,2.253 4.617,1.882 l 0.037,0.039 -1.528,1.29 1.476,1.747 9.801,-8.284"
           style="fill:#b51f12;fill-opacity:1;fill-rule:nonzero;stroke:none"
           id="path3056"
           inkscape:connector-curvature="0" /><path
           d="m 85.058,244.033 c -1.357,1.538 -3.376,1.998 -4.973,0.589 -1.814,-1.601 -1.24,-3.76 -0.229,-5.181 l 5.202,4.592 z m 6.126,-4.516 c -0.483,-0.883 -0.941,-1.99 -2.598,-3.452 -3.567,-3.148 -7.119,-2.424 -10.006,0.847 -2.626,2.975 -2.617,6.738 0.223,9.242 3.349,2.958 6.59,1.472 9.445,-1.76 l -7.176,-6.334 c 1.759,-1.99 4.517,-1.975 6.271,-0.427 1.221,1.079 2.085,2.961 2.205,3.736 l 1.636,-1.852"
           style="fill:#b51f12;fill-opacity:1;fill-rule:nonzero;stroke:none"
           id="path3058"
           inkscape:connector-curvature="0" /><path
           d="m 87.873,253.48 1.983,1.195 1.005,-1.667 0.045,0.026 c 0.012,1.819 0.794,3.119 2.484,4.138 1.331,0.801 3.066,0.926 4.613,-0.262 -0.202,2.12 1.181,3.751 2.216,4.376 2.929,1.765 5.129,0.512 6.638,-1.99 l 4.439,-7.371 -2.118,-1.276 -4.129,6.852 c -0.853,1.419 -2.265,2.996 -3.979,1.964 -2.164,-1.304 -1.741,-3.938 -0.453,-6.079 l 3.491,-5.792 -2.118,-1.276 -4.128,6.851 c -0.857,1.42 -2.266,2.996 -3.98,1.964 -2.164,-1.303 -1.745,-3.937 -0.453,-6.079 l 3.488,-5.792 -2.118,-1.276 -6.926,11.494"
           style="fill:#b51f12;fill-opacity:1;fill-rule:nonzero;stroke:none"
           id="path3060"
           inkscape:connector-curvature="0" /><path
           d="m 120.506,263.946 c -0.725,1.919 -2.45,3.067 -4.445,2.316 -2.264,-0.855 -2.493,-3.078 -2.052,-4.768 l 6.497,2.452 z m 4.131,-6.399 c -0.767,-0.655 -1.588,-1.527 -3.658,-2.307 -4.454,-1.682 -7.516,0.255 -9.058,4.341 -1.403,3.716 -0.061,7.232 3.485,8.57 4.182,1.578 6.69,-0.962 8.211,-4.998 l -8.956,-3.382 c 0.935,-2.486 3.521,-3.45 5.712,-2.623 1.527,0.576 3.002,2.032 3.392,2.714 l 0.872,-2.315"
           style="fill:#b51f12;fill-opacity:1;fill-rule:nonzero;stroke:none"
           id="path3062"
           inkscape:connector-curvature="0" /><path
           d="m 126.167,271.454 2.338,0.511 0.453,-2.082 0.054,0.012 c 0.392,1.648 1.944,2.929 3.769,3.327 3.392,0.741 5.368,-1.037 6.135,-4.557 l 1.702,-7.784 -2.417,-0.529 -1.482,6.783 c -0.667,3.059 -1.659,4.403 -3.796,4.071 -2.749,-0.6 -3.5,-3.079 -2.803,-6.266 l 1.324,-6.063 -2.417,-0.529 -2.86,13.106"
           style="fill:#b51f12;fill-opacity:1;fill-rule:nonzero;stroke:none"
           id="path3064"
           inkscape:connector-curvature="0" /><path
           d="m 150.877,273.343 -3.539,-0.318 0.658,-7.314 c 0.142,-1.547 1.158,-2.301 2.287,-2.2 0.76,0.068 1.288,0.354 1.635,0.623 l 0.188,-2.097 c -0.535,-0.206 -1.276,-0.486 -2.064,-0.556 -2.544,-0.228 -4.225,0.836 -4.463,3.511 l -0.704,7.81 -3.014,-0.27 -0.181,1.992 3.014,0.272 -0.277,3.093 2.393,1.008 0.35,-3.879 3.539,0.318 0.178,-1.993"
           style="fill:#b51f12;fill-opacity:1;fill-rule:nonzero;stroke:none"
           id="path3066"
           inkscape:connector-curvature="0" /><path
           d="m 142.425,22.755 -3.817,0.607 c -6.253,0.998 -10.188,-1.467 -11.232,-8.013 -0.944,-5.923 2.536,-10.057 7.771,-10.892 l 4.252,-0.68 3.026,18.978 z M 142.525,0 135.036,1.195 c -7.527,1.2 -12.78,6.81 -11.534,14.625 1.355,8.507 7.221,12.08 15.58,10.746 L 146.571,25.375 142.525,0"
           style="fill:#b51f12;fill-opacity:1;fill-rule:nonzero;stroke:none"
           id="path3068"
           inkscape:connector-curvature="0" /><path
           d="m 105.991,26.014 c 0.694,-0.251 1.361,-0.57 2.052,-0.818 1.765,-0.64 6.225,-1.938 7.351,1.18 0.673,1.868 -0.764,3.521 -2.251,4.059 -3.22,1.161 -5.64,-0.232 -6.588,-2.864 l -0.564,-1.557 z m 6.772,-11.482 c -1.977,-0.38 -4.165,-0.374 -6.416,0.441 -5.051,1.823 -6.195,5.051 -4.456,9.861 l 2.633,7.302 c 0.728,2.007 0.993,2.967 1.114,3.513 l 3.045,-1.101 -0.824,-2.285 0.067,-0.024 c 1.149,0.797 3.467,1.799 6.442,0.725 3.808,-1.374 5.872,-3.997 4.487,-7.837 -1.599,-4.43 -6.943,-4.068 -10.302,-2.855 -1.279,0.461 -2.178,0.787 -3.437,1.318 -1.098,-3.044 -0.552,-5.002 2.701,-6.176 1.834,-0.661 4.055,-0.683 5.769,-0.048 l -0.823,-2.834"
           style="fill:#b51f12;fill-opacity:1;fill-rule:nonzero;stroke:none"
           id="path3070"
           inkscape:connector-curvature="0" /><path
           d="m 83.181,29.176 4.391,-2.33 4.816,9.077 c 1.017,1.919 0.398,3.583 -0.999,4.325 -0.944,0.501 -1.783,0.57 -2.393,0.518 l 1.379,2.602 c 0.788,-0.166 1.868,-0.407 2.846,-0.923 3.153,-1.675 4.312,-4.207 2.552,-7.526 l -5.141,-9.693 3.741,-1.985 -1.312,-2.472 -3.742,1.983 -2.037,-3.838 -3.576,0.645 2.556,4.816 -4.393,2.33 1.312,2.471"
           style="fill:#b51f12;fill-opacity:1;fill-rule:nonzero;stroke:none"
           id="path3072"
           inkscape:connector-curvature="0" /><path
           d="m 71.669,45.432 c 0.598,-0.431 1.15,-0.924 1.745,-1.358 1.52,-1.104 5.449,-3.591 7.396,-0.911 1.167,1.611 0.247,3.599 -1.036,4.529 -2.77,2.013 -5.485,1.346 -7.13,-0.917 L 71.669,45.432 z M 74.986,32.51 c -2.007,0.185 -4.11,0.8 -6.048,2.206 -4.348,3.16 -4.55,6.582 -1.542,10.725 l 4.566,6.285 c 1.255,1.73 1.78,2.577 2.046,3.07 l 2.622,-1.905 -1.427,-1.968 0.06,-0.044 c 1.325,0.449 3.833,0.766 6.395,-1.093 3.277,-2.38 4.535,-5.48 2.13,-8.787 -2.77,-3.815 -7.807,-1.976 -10.698,0.124 -1.101,0.8 -1.876,1.364 -2.935,2.223 -1.905,-2.622 -1.926,-4.655 0.874,-6.689 1.582,-1.147 3.712,-1.783 5.538,-1.653 L 74.986,32.51"
           style="fill:#b51f12;fill-opacity:1;fill-rule:nonzero;stroke:none"
           id="path3074"
           inkscape:connector-curvature="0" /><path
           d="m 50.739,54.261 c 2.616,-2.694 6.434,-1.5 8.942,0.939 2.245,2.179 3.889,6.035 1.171,8.832 -2.59,2.668 -6.651,0.879 -8.712,-1.228 -2.481,-2.305 -4.017,-5.851 -1.401,-8.543 z m -1.741,-14.267 -2.414,2.484 8.187,7.947 -0.051,0.055 c -1.986,-0.44 -4.219,0.01 -6.5,2.36 -3.796,3.908 -2.447,8.911 1.171,12.426 3.694,3.591 8.953,5.363 12.903,1.298 2.335,-2.405 2.607,-5.114 2.245,-6.75 l 0.051,-0.052 1.901,1.847 2.308,-2.378 -19.801,-19.237"
           style="fill:#b51f12;fill-opacity:1;fill-rule:nonzero;stroke:none"
           id="path3076"
           inkscape:connector-curvature="0" /><path
           d="m 39.197,80.695 c 0.417,-0.609 0.773,-1.258 1.189,-1.864 1.063,-1.548 3.932,-5.209 6.663,-3.332 1.642,1.126 1.439,3.307 0.543,4.614 -1.94,2.824 -4.722,3.101 -7.028,1.52 l -1.367,-0.938 z m -1.2,-13.286 c -1.829,0.845 -3.603,2.127 -4.958,4.1 -3.042,4.433 -2.085,7.726 2.133,10.622 l 6.406,4.397 c 1.762,1.211 2.541,1.832 2.954,2.206 l 1.835,-2.671 -2.003,-1.376 0.042,-0.059 c 1.397,-0.025 3.868,-0.563 5.661,-3.175 2.29,-3.338 2.438,-6.678 -0.933,-8.989 -3.886,-2.668 -8.017,0.748 -10.039,3.693 -0.773,1.126 -1.313,1.913 -2.025,3.078 -2.671,-1.832 -3.371,-3.742 -1.412,-6.597 1.104,-1.608 2.9,-2.924 4.665,-3.41 l -2.326,-1.819"
           style="fill:#b51f12;fill-opacity:1;fill-rule:nonzero;stroke:none"
           id="path3078"
           inkscape:connector-curvature="0" /><path
           d="m 38.581,91.906 c 0.19,1.61 -0.28,3.558 -0.721,4.447 -0.7,1.418 -2.157,2.876 -3.974,1.977 -3.069,-1.515 0.8,-8.678 -3.919,-11.011 -3.498,-1.73 -6.47,0.045 -8.118,3.379 -0.718,1.452 -1.008,2.785 -1.249,4.186 l 2.836,1.074 c -0.087,-0.906 0.399,-2.966 0.758,-3.691 0.782,-1.584 2.127,-2.642 3.515,-1.958 3.432,1.697 -1.165,8.5 4.216,11.158 3.597,1.779 6.666,-0.276 8.15,-3.279 0.785,-1.584 1.419,-3.283 1.361,-5.078 l -2.855,-1.204"
           style="fill:#b51f12;fill-opacity:1;fill-rule:nonzero;stroke:none"
           id="path3080"
           inkscape:connector-curvature="0" /></g><g
         id="g3084"
         clip-path="url(#clipPath3086)"
         style="fill:#b51f12;fill-opacity:1"><path
           d="m 20.214,116.827 c -2.728,-0.896 -4.439,-3.24 -3.507,-6.074 1.06,-3.219 4.156,-3.675 6.545,-3.16 l -3.038,9.234 z m 9.201,5.392 c 0.868,-1.11 2.039,-2.313 3.005,-5.253 2.082,-6.334 -0.812,-10.501 -6.618,-12.411 -5.283,-1.738 -10.117,0.356 -11.777,5.393 -1.956,5.947 1.75,9.297 7.49,11.185 L 25.7,108.399 c 3.533,1.162 5.039,4.72 4.016,7.831 -0.712,2.17 -2.661,4.321 -3.591,4.906 l 3.29,1.083"
           style="fill:#b51f12;fill-opacity:1;fill-rule:nonzero;stroke:none"
           id="path3090"
           inkscape:connector-curvature="0" /><path
           d="m 3.967,150.899 c -0.594,-1.928 -0.844,-2.981 -0.7,-4.892 0.154,-2.058 1.071,-4.426 3.754,-4.221 4.922,0.372 2.948,11.303 11.398,11.943 5.47,0.417 7.956,-3.645 8.349,-8.787 0.136,-1.798 -0.245,-3.6 -0.67,-5.332 l -3.443,0.109 c 0.419,1.288 0.987,3.545 0.845,5.419 -0.157,2.094 -1.554,4.944 -4.569,4.713 -5.727,-0.43 -3.313,-11.33 -11.285,-11.933 -4.554,-0.348 -7.251,3.068 -7.602,7.697 -0.127,1.689 0.012,3.733 0.504,5.543 l 3.419,-0.259"
           style="fill:#b51f12;fill-opacity:1;fill-rule:nonzero;stroke:none"
           id="path3092"
           inkscape:connector-curvature="0" /></g><g
         id="g3096"
         clip-path="url(#clipPath3098)"
         style="fill:#b51f12;fill-opacity:1"><path
           d="m 30.672,158.313 c 0.182,0.432 0.369,1.008 0.411,1.597 0.224,3.083 -3.965,4.421 -4.33,4.447 -0.404,0.027 -1.391,-0.344 -2.031,-0.518 l -17.943,-5.1 0.275,3.784 15.861,3.916 0.006,0.076 -15.13,6.255 0.25,3.488 18.64,-8.28 c 3.506,-1.545 7.558,-3.201 7.233,-7.755 -0.082,-1.101 -0.272,-1.717 -0.429,-2.333 l -2.813,0.423"
           style="fill:#b51f12;fill-opacity:1;fill-rule:nonzero;stroke:none"
           id="path3102"
           inkscape:connector-curvature="0" /><path
           d="m 23.799,178.872 c 1.143,1.156 1.97,2.978 2.173,3.953 0.319,1.551 0.063,3.594 -1.92,4.004 -3.355,0.694 -4.713,-7.339 -9.87,-6.274 -3.824,0.791 -5.076,4.02 -4.322,7.665 0.326,1.587 0.921,2.819 1.594,4.071 l 2.897,-0.9 c -0.625,-0.66 -1.512,-2.583 -1.675,-3.376 -0.359,-1.732 0.051,-3.397 1.566,-3.709 3.751,-0.775 4.315,7.42 10.193,6.204 3.932,-0.811 5.088,-4.321 4.409,-7.604 -0.356,-1.732 -0.902,-3.461 -2.052,-4.84 l -2.993,0.806"
           style="fill:#b51f12;fill-opacity:1;fill-rule:nonzero;stroke:none"
           id="path3104"
           inkscape:connector-curvature="0" /><path
           d="m 19.218,209.045 -1.572,-4.717 9.747,-3.25 c 2.061,-0.687 3.6,0.198 4.1,1.7 0.336,1.015 0.266,1.852 0.115,2.446 l 2.794,-0.93 c -0.033,-0.805 -0.093,-1.911 -0.44,-2.959 -1.132,-3.389 -3.437,-4.95 -7.001,-3.762 l -10.411,3.471 -1.34,-4.019 -2.655,0.886 1.34,4.018 -4.122,1.373 0.045,3.634 5.173,-1.724 1.572,4.716 2.655,-0.883"
           style="fill:#b51f12;fill-opacity:1;fill-rule:nonzero;stroke:none"
           id="path3106"
           inkscape:connector-curvature="0" /><path
           d="m 31.834,224.975 c -2.567,1.287 -5.434,0.83 -6.771,-1.836 -1.518,-3.028 0.356,-5.532 2.414,-6.851 l 4.357,8.687 z m 10.32,-2.662 c -0.166,-1.399 -0.183,-3.078 -1.572,-5.843 -2.987,-5.956 -7.975,-6.874 -13.44,-4.133 -4.97,2.491 -6.922,7.383 -4.544,12.123 2.803,5.594 7.791,5.357 13.189,2.652 l -6.007,-11.98 c 3.325,-1.667 6.898,-0.205 8.367,2.724 1.023,2.039 1.159,4.938 0.914,6.008 l 3.093,-1.551"
           style="fill:#b51f12;fill-opacity:1;fill-rule:nonzero;stroke:none"
           id="path3108"
           inkscape:connector-curvature="0" /><path
           d="m 31.46,240.079 2.025,2.532 2.131,-1.704 0.045,0.059 c -0.869,2.393 -0.471,4.48 1.255,6.637 1.355,1.697 3.576,2.703 6.183,1.892 -1.294,2.687 -0.271,5.499 0.788,6.823 2.99,3.738 6.487,3.157 9.68,0.603 l 9.406,-7.523 -2.164,-2.703 -8.742,6.994 c -1.813,1.45 -4.429,2.835 -6.18,0.651 -2.209,-2.762 -0.377,-6.018 2.354,-8.204 l 7.39,-5.913 -2.16,-2.703 -8.745,6.994 c -1.811,1.451 -4.43,2.835 -6.178,0.651 -2.209,-2.761 -0.38,-6.017 2.354,-8.203 l 7.39,-5.913 -2.163,-2.705 -14.669,11.735"
           style="fill:#b51f12;fill-opacity:1;fill-rule:nonzero;stroke:none"
           id="path3110"
           inkscape:connector-curvature="0" /><path
           d="m 64.97,255.702 c 1.609,0.219 3.377,1.156 4.132,1.803 1.2,1.032 2.248,2.807 0.926,4.342 -2.23,2.596 -8.208,-2.931 -11.639,1.059 -2.544,2.959 -1.563,6.278 1.255,8.703 1.229,1.056 2.451,1.669 3.745,2.25 l 1.744,-2.48 c -0.896,-0.142 -2.773,-1.123 -3.385,-1.651 -1.34,-1.153 -2.035,-2.719 -1.023,-3.891 2.495,-2.903 7.941,3.239 11.856,-1.311 2.616,-3.042 1.385,-6.526 -1.153,-8.711 -1.34,-1.151 -2.828,-2.187 -4.58,-2.577 l -1.878,2.464"
           style="fill:#b51f12;fill-opacity:1;fill-rule:nonzero;stroke:none"
           id="path3112"
           inkscape:connector-curvature="0" /><path
           d="m 95.544,283.05 c -0.651,-0.342 -1.337,-0.62 -1.988,-0.962 -1.663,-0.872 -5.631,-3.289 -4.089,-6.223 0.924,-1.759 3.114,-1.813 4.514,-1.077 3.03,1.592 3.633,4.32 2.333,6.796 l -0.77,1.466 z m -13.045,2.75 c 1.053,1.718 2.535,3.328 4.653,4.44 4.756,2.5 7.912,1.163 10.29,-3.365 L 101.054,280 c 0.993,-1.889 1.521,-2.734 1.841,-3.19 l -2.867,-1.506 -1.128,2.15 -0.067,-0.033 c -0.184,-1.387 -1.01,-3.774 -3.811,-5.246 -3.585,-1.883 -6.916,-1.637 -8.814,1.979 -2.191,4.171 1.687,7.871 4.846,9.53 1.204,0.634 2.052,1.079 3.293,1.648 -1.506,2.866 -3.32,3.783 -6.383,2.176 -1.726,-0.907 -3.241,-2.536 -3.932,-4.229 l -1.533,2.521"
           style="fill:#b51f12;fill-opacity:1;fill-rule:nonzero;stroke:none"
           id="path3114"
           inkscape:connector-curvature="0" /><path
           d="m 103.39,297.364 3.19,1.026 0.911,-2.838 0.07,0.023 c 0.328,2.347 2.317,4.339 4.803,5.141 4.623,1.485 7.614,-0.722 9.158,-5.521 l 3.416,-10.615 -3.295,-1.059 -2.975,9.249 c -1.34,4.169 -2.903,5.906 -5.833,5.158 -3.748,-1.205 -4.46,-4.76 -3.063,-9.104 l 2.659,-8.266 -3.292,-1.059 -5.749,17.865"
           style="fill:#b51f12;fill-opacity:1;fill-rule:nonzero;stroke:none"
           id="path3116"
           inkscape:connector-curvature="0" /><path
           d="m 139.055,289.445 c 3.868,0.51 4.969,4.553 4.559,7.655 -0.455,3.466 -2.709,6.77 -6.433,6.28 -3.724,-0.491 -4.72,-4.186 -4.201,-7.57 0.311,-2.93 2.387,-6.851 6.075,-6.365 z m 5.582,1.032 -0.075,-0.01 c -0.728,-1.507 -2.623,-3.464 -5.945,-3.903 -5.618,-0.739 -8.652,3.947 -9.318,9.02 -0.661,5 1.385,9.762 6.786,10.474 3.248,0.427 5.278,-0.605 6.563,-2.18 l 0.073,0.008 -1.491,11.315 3.428,0.451 3.609,-27.369 -3.286,-0.433 -0.344,2.627"
           style="fill:#b51f12;fill-opacity:1;fill-rule:nonzero;stroke:none"
           id="path3118"
           inkscape:connector-curvature="0" /><path
           d="m 166.548,245.163 49.306,0 0,-27.575 -49.306,0 0,27.575 z"
           style="fill:#b51f12;fill-opacity:1;fill-rule:nonzero;stroke:none"
           id="path3120"
           inkscape:connector-curvature="0" /><path
           d="m 166.548,199.438 49.306,0 0,-132.592 -49.306,0 0,132.592 z"
           style="fill:#b51f12;fill-opacity:1;fill-rule:nonzero;stroke:none"
           id="path3122"
           inkscape:connector-curvature="0" /></g></g></g></svg>