<?xml version="1.0" encoding="UTF-8" standalone="no"?>
<!-- Created with Inkscape (http://www.inkscape.org/) -->

<svg
   xmlns:dc="http://purl.org/dc/elements/1.1/"
   xmlns:cc="http://creativecommons.org/ns#"
   xmlns:rdf="http://www.w3.org/1999/02/22-rdf-syntax-ns#"
   xmlns:svg="http://www.w3.org/2000/svg"
   xmlns="http://www.w3.org/2000/svg"
   xmlns:sodipodi="http://sodipodi.sourceforge.net/DTD/sodipodi-0.dtd"
   xmlns:inkscape="http://www.inkscape.org/namespaces/inkscape"
   width="744.09448819"
   height="1052.3622047"
   id="svg2"
   version="1.1"
   inkscape:version="0.48.2 r9819"
   sodipodi:docname="partitionings.svg">
  <defs
     id="defs4" />
  <sodipodi:namedview
     id="base"
     pagecolor="#ffffff"
     bordercolor="#666666"
     borderopacity="1.0"
     inkscape:pageopacity="0.0"
     inkscape:pageshadow="2"
     inkscape:zoom="0.98994949"
     inkscape:cx="304.56488"
     inkscape:cy="265.48413"
     inkscape:document-units="px"
     inkscape:current-layer="layer1"
     showgrid="true"
     inkscape:window-width="1398"
     inkscape:window-height="856"
     inkscape:window-x="42"
     inkscape:window-y="0"
     inkscape:window-maximized="1">
    <inkscape:grid
       type="xygrid"
       id="grid2985" />
  </sodipodi:namedview>
  <metadata
     id="metadata7">
    <rdf:RDF>
      <cc:Work
         rdf:about="">
        <dc:format>image/svg+xml</dc:format>
        <dc:type
           rdf:resource="http://purl.org/dc/dcmitype/StillImage" />
        <dc:title></dc:title>
      </cc:Work>
    </rdf:RDF>
  </metadata>
  <g
     inkscape:label="Layer 1"
     inkscape:groupmode="layer"
     id="layer1">
    <path
       style="fill:#ffff00;fill-opacity:1;stroke:none"
       d="m 181.66465,723.60911 c 0.13306,-25.62121 0.20474,-27.57083 1.04451,-28.41054 0.83984,-0.83979 2.78701,-0.9111 28.41054,-1.04046 l 27.5089,-0.13888 0,28.54942 0,28.54942 -28.5534,0 -28.55341,0 0.14286,-27.50896 z"
       id="path3910"
       inkscape:connector-curvature="0"
       inkscape:export-filename="/Users/till/uni/ws14/dima/mastersthesis/thesis/gilbert/images/quadraticBlockPartitioning.png"
       inkscape:export-xdpi="300"
       inkscape:export-ydpi="300" />
    <path
       style="fill:#ffff00;fill-opacity:1;stroke:none"
       d="m 241.65905,722.58126 0,-28.53681 28.53681,0 28.53681,0 0,28.53681 0,28.53681 -28.53681,0 -28.53681,0 0,-28.53681 z"
       id="path3912"
       inkscape:connector-curvature="0"
       inkscape:export-filename="/Users/till/uni/ws14/dima/mastersthesis/thesis/gilbert/images/quadraticBlockPartitioning.png"
       inkscape:export-xdpi="300"
       inkscape:export-ydpi="300" />
    <path
       style="fill:#ffff00;fill-opacity:1;stroke:none"
       d="m 241.65905,782.18026 0,-28.53681 28.53681,0 28.53681,0 0,28.53681 0,28.53681 -28.53681,0 -28.53681,0 0,-28.53681 z"
       id="path3914"
       inkscape:connector-curvature="0"
       inkscape:export-filename="/Users/till/uni/ws14/dima/mastersthesis/thesis/gilbert/images/quadraticBlockPartitioning.png"
       inkscape:export-xdpi="300"
       inkscape:export-ydpi="300" />
    <path
       style="fill:#ffff00;fill-opacity:1;stroke:none"
       d="m 181.55498,782.18026 0,-28.53681 28.53681,0 28.53681,0 0,28.53681 0,28.53681 -28.53681,0 -28.53681,0 0,-28.53681 z"
       id="path3916"
       inkscape:connector-curvature="0"
       inkscape:export-filename="/Users/till/uni/ws14/dima/mastersthesis/thesis/gilbert/images/quadraticBlockPartitioning.png"
       inkscape:export-xdpi="300"
       inkscape:export-ydpi="300" />
    <path
       style="fill:#00ff00;fill-opacity:1;stroke:none"
       d="m 301.25805,722.58126 0,-28.53681 28.53681,0 28.53681,0 0,28.53681 0,28.53681 -28.53681,0 -28.53681,0 0,-28.53681 z"
       id="path3918"
       inkscape:connector-curvature="0"
       inkscape:export-filename="/Users/till/uni/ws14/dima/mastersthesis/thesis/gilbert/images/quadraticBlockPartitioning.png"
       inkscape:export-xdpi="300"
       inkscape:export-ydpi="300" />
    <path
       style="fill:#00ff00;fill-opacity:1;stroke:none"
       d="m 301.25805,782.18026 0,-28.53681 28.53681,0 28.53681,0 0,28.53681 0,28.53681 -28.53681,0 -28.53681,0 0,-28.53681 z"
       id="path3920"
       inkscape:connector-curvature="0"
       inkscape:export-filename="/Users/till/uni/ws14/dima/mastersthesis/thesis/gilbert/images/quadraticBlockPartitioning.png"
       inkscape:export-xdpi="300"
       inkscape:export-ydpi="300" />
    <path
       style="fill:#00ff00;fill-opacity:1;stroke:none"
       d="m 361.36213,782.18026 0,-28.53681 28.53681,0 28.53681,0 0,28.53681 0,28.53681 -28.53681,0 -28.53681,0 0,-28.53681 z"
       id="path3922"
       inkscape:connector-curvature="0"
       inkscape:export-filename="/Users/till/uni/ws14/dima/mastersthesis/thesis/gilbert/images/quadraticBlockPartitioning.png"
       inkscape:export-xdpi="300"
       inkscape:export-ydpi="300" />
    <path
       style="fill:#00ff00;fill-opacity:1;stroke:none"
       d="m 361.36213,722.58126 0,-28.53681 27.21816,0 c 26.04391,0 27.26961,0.0417 28.41055,0.9653 l 1.19237,0.96529 0.13888,27.57152 0.13888,27.57151 -28.54942,0 -28.54942,0 0,-28.53681 z"
       id="path3924"
       inkscape:connector-curvature="0"
       inkscape:export-filename="/Users/till/uni/ws14/dima/mastersthesis/thesis/gilbert/images/quadraticBlockPartitioning.png"
       inkscape:export-xdpi="300"
       inkscape:export-ydpi="300" />
    <path
       style="fill:#ff0000;fill-opacity:1;stroke:none"
       d="m 181.55498,842.28434 0,-28.53681 28.53681,0 28.53681,0 0,28.53681 0,28.53681 -28.53681,0 -28.53681,0 0,-28.53681 z"
       id="path3926"
       inkscape:connector-curvature="0"
       inkscape:export-filename="/Users/till/uni/ws14/dima/mastersthesis/thesis/gilbert/images/quadraticBlockPartitioning.png"
       inkscape:export-xdpi="300"
       inkscape:export-ydpi="300" />
    <path
       style="fill:#ff0000;fill-opacity:1;stroke:none"
       d="m 241.65905,842.28434 0,-28.53681 28.53681,0 28.53681,0 0,28.53681 0,28.53681 -28.53681,0 -28.53681,0 0,-28.53681 z"
       id="path3928"
       inkscape:connector-curvature="0"
       inkscape:export-filename="/Users/till/uni/ws14/dima/mastersthesis/thesis/gilbert/images/quadraticBlockPartitioning.png"
       inkscape:export-xdpi="300"
       inkscape:export-ydpi="300" />
    <path
       style="fill:#ff0000;fill-opacity:1;stroke:none"
       d="m 241.65905,902.13588 0,-28.28427 28.53681,0 28.53681,0 0,28.28427 0,28.28427 -28.53681,0 -28.53681,0 0,-28.28427 z"
       id="path3930"
       inkscape:connector-curvature="0"
       inkscape:export-filename="/Users/till/uni/ws14/dima/mastersthesis/thesis/gilbert/images/quadraticBlockPartitioning.png"
       inkscape:export-xdpi="300"
       inkscape:export-ydpi="300" />
    <path
       style="fill:#ff0000;fill-opacity:1;stroke:none"
       d="m 182.76968,929.35729 c -0.91734,-1.01335 -0.96864,-2.33107 -1.10115,-28.28428 l -0.13898,-27.2214 28.54952,0 28.54953,0 0,28.28427 0,28.28427 -27.44838,0 c -27.26058,0 -27.45496,-0.007 -28.41054,-1.06286 z"
       id="path3932"
       inkscape:connector-curvature="0"
       inkscape:export-filename="/Users/till/uni/ws14/dima/mastersthesis/thesis/gilbert/images/quadraticBlockPartitioning.png"
       inkscape:export-xdpi="300"
       inkscape:export-ydpi="300" />
    <path
       style="fill:#0000ff;fill-opacity:1;stroke:none"
       d="m 301.25805,842.28434 0,-28.53681 28.53681,0 28.53681,0 0,28.53681 0,28.53681 -28.53681,0 -28.53681,0 0,-28.53681 z"
       id="path3934"
       inkscape:connector-curvature="0"
       inkscape:export-filename="/Users/till/uni/ws14/dima/mastersthesis/thesis/gilbert/images/quadraticBlockPartitioning.png"
       inkscape:export-xdpi="300"
       inkscape:export-ydpi="300" />
    <path
       style="fill:#0000ff;fill-opacity:1;stroke:none"
       d="m 361.36213,842.28434 0,-28.53681 28.53681,0 28.53681,0 0,28.53681 0,28.53681 -28.53681,0 -28.53681,0 0,-28.53681 z"
       id="path3936"
       inkscape:connector-curvature="0"
       inkscape:export-filename="/Users/till/uni/ws14/dima/mastersthesis/thesis/gilbert/images/quadraticBlockPartitioning.png"
       inkscape:export-xdpi="300"
       inkscape:export-ydpi="300" />
    <path
       style="fill:#0000ff;fill-opacity:1;stroke:none"
       d="m 301.25805,902.13588 0,-28.28427 28.53681,0 28.53681,0 0,28.28427 0,28.28427 -28.53681,0 -28.53681,0 0,-28.28427 z"
       id="path3938"
       inkscape:connector-curvature="0"
       inkscape:export-filename="/Users/till/uni/ws14/dima/mastersthesis/thesis/gilbert/images/quadraticBlockPartitioning.png"
       inkscape:export-xdpi="300"
       inkscape:export-ydpi="300" />
    <path
       style="fill:#0000ff;fill-opacity:1;stroke:none"
       d="m 361.36213,902.13588 0,-28.28427 28.54952,0 28.54953,0 -0.13899,27.2214 c -0.1325,25.95321 -0.1838,27.27093 -1.10114,28.28428 -0.95558,1.05558 -1.14996,1.06286 -28.41054,1.06286 l -27.44838,0 0,-28.28427 z"
       id="path3940"
       inkscape:connector-curvature="0"
       inkscape:export-filename="/Users/till/uni/ws14/dima/mastersthesis/thesis/gilbert/images/quadraticBlockPartitioning.png"
       inkscape:export-xdpi="300"
       inkscape:export-ydpi="300" />
    <path
       style="fill:#0000ff;fill-opacity:1;stroke:none"
       d="m 181.55498,424.66163 c 0,-18.25155 0.17563,-26.94496 0.56706,-28.0678 0.32868,-0.94286 1.08562,-1.82382 1.80064,-2.09567 0.70276,-0.26719 12.73866,-0.46901 27.96975,-0.46901 l 26.73617,0 0,28.53681 0,28.5368 -28.53681,0 -28.53681,0 0,-26.44113 z"
       id="path3878"
       inkscape:connector-curvature="0"
       inkscape:export-filename="/Users/till/uni/ws14/dima/mastersthesis/thesis/gilbert/images/columnPartitioning.png"
       inkscape:export-xdpi="300"
       inkscape:export-ydpi="300" />
    <path
       style="fill:#0000ff;fill-opacity:1;stroke:none"
       d="m 181.55498,482.16496 0,-28.53681 28.53681,0 28.53681,0 0,28.53681 0,28.5368 -28.53681,0 -28.53681,0 0,-28.5368 z"
       id="path3880"
       inkscape:connector-curvature="0"
       inkscape:export-filename="/Users/till/uni/ws14/dima/mastersthesis/thesis/gilbert/images/columnPartitioning.png"
       inkscape:export-xdpi="300"
       inkscape:export-ydpi="300" />
    <path
       style="fill:#0000ff;fill-opacity:1;stroke:none"
       d="m 181.55498,542.26903 0,-28.53681 28.53681,0 28.53681,0 0,28.53681 0,28.53681 -28.53681,0 -28.53681,0 0,-28.53681 z"
       id="path3882"
       inkscape:connector-curvature="0"
       inkscape:export-filename="/Users/till/uni/ws14/dima/mastersthesis/thesis/gilbert/images/columnPartitioning.png"
       inkscape:export-xdpi="300"
       inkscape:export-ydpi="300" />
    <path
       style="fill:#0000ff;fill-opacity:1;stroke:none"
       d="m 182.76968,629.34198 c -0.91734,-1.01335 -0.96864,-2.33107 -1.10115,-28.28427 l -0.13898,-27.22141 28.54952,0 28.54953,0 0,28.28427 0,28.28427 -27.44838,0 c -27.26058,0 -27.45496,-0.007 -28.41054,-1.06286 z"
       id="path3884"
       inkscape:connector-curvature="0"
       inkscape:export-filename="/Users/till/uni/ws14/dima/mastersthesis/thesis/gilbert/images/columnPartitioning.png"
       inkscape:export-xdpi="300"
       inkscape:export-ydpi="300" />
    <path
       style="fill:#ff0000;fill-opacity:1;stroke:none"
       d="m 241.65905,422.56596 0,-28.53681 28.53681,0 28.53681,0 0,28.53681 0,28.5368 -28.53681,0 -28.53681,0 0,-28.5368 z"
       id="path3886"
       inkscape:connector-curvature="0"
       inkscape:export-filename="/Users/till/uni/ws14/dima/mastersthesis/thesis/gilbert/images/columnPartitioning.png"
       inkscape:export-xdpi="300"
       inkscape:export-ydpi="300" />
    <path
       style="fill:#ff0000;fill-opacity:1;stroke:none"
       d="m 241.65905,482.16496 0,-28.53681 28.53681,0 28.53681,0 0,28.53681 0,28.5368 -28.53681,0 -28.53681,0 0,-28.5368 z"
       id="path3888"
       inkscape:connector-curvature="0"
       inkscape:export-filename="/Users/till/uni/ws14/dima/mastersthesis/thesis/gilbert/images/columnPartitioning.png"
       inkscape:export-xdpi="300"
       inkscape:export-ydpi="300" />
    <path
       style="fill:#ff0000;fill-opacity:1;stroke:none"
       d="m 241.65905,542.26903 0,-28.53681 28.53681,0 28.53681,0 0,28.53681 0,28.53681 -28.53681,0 -28.53681,0 0,-28.53681 z"
       id="path3890"
       inkscape:connector-curvature="0"
       inkscape:export-filename="/Users/till/uni/ws14/dima/mastersthesis/thesis/gilbert/images/columnPartitioning.png"
       inkscape:export-xdpi="300"
       inkscape:export-ydpi="300" />
    <path
       style="fill:#ff0000;fill-opacity:1;stroke:none"
       d="m 241.65905,602.12057 0,-28.28427 28.53681,0 28.53681,0 0,28.28427 0,28.28427 -28.53681,0 -28.53681,0 0,-28.28427 z"
       id="path3892"
       inkscape:connector-curvature="0"
       inkscape:export-filename="/Users/till/uni/ws14/dima/mastersthesis/thesis/gilbert/images/columnPartitioning.png"
       inkscape:export-xdpi="300"
       inkscape:export-ydpi="300" />
    <path
       style="fill:#00ff00;fill-opacity:1;stroke:none"
       d="m 301.25805,422.56596 0,-28.53681 28.53681,0 28.53681,0 0,28.53681 0,28.5368 -28.53681,0 -28.53681,0 0,-28.5368 z"
       id="path3894"
       inkscape:connector-curvature="0"
       inkscape:export-filename="/Users/till/uni/ws14/dima/mastersthesis/thesis/gilbert/images/columnPartitioning.png"
       inkscape:export-xdpi="300"
       inkscape:export-ydpi="300" />
    <path
       style="fill:#00ff00;fill-opacity:1;stroke:none"
       d="m 301.25805,482.16496 0,-28.53681 28.53681,0 28.53681,0 0,28.53681 0,28.5368 -28.53681,0 -28.53681,0 0,-28.5368 z"
       id="path3896"
       inkscape:connector-curvature="0"
       inkscape:export-filename="/Users/till/uni/ws14/dima/mastersthesis/thesis/gilbert/images/columnPartitioning.png"
       inkscape:export-xdpi="300"
       inkscape:export-ydpi="300" />
    <path
       style="fill:#00ff00;fill-opacity:1;stroke:none"
       d="m 301.25805,542.26903 0,-28.53681 28.53681,0 28.53681,0 0,28.53681 0,28.53681 -28.53681,0 -28.53681,0 0,-28.53681 z"
       id="path3898"
       inkscape:connector-curvature="0"
       inkscape:export-filename="/Users/till/uni/ws14/dima/mastersthesis/thesis/gilbert/images/columnPartitioning.png"
       inkscape:export-xdpi="300"
       inkscape:export-ydpi="300" />
    <path
       style="fill:#00ff00;fill-opacity:1;stroke:none"
       d="m 301.25805,602.12057 0,-28.28427 28.53681,0 28.53681,0 0,28.28427 0,28.28427 -28.53681,0 -28.53681,0 0,-28.28427 z"
       id="path3900"
       inkscape:connector-curvature="0"
       inkscape:export-filename="/Users/till/uni/ws14/dima/mastersthesis/thesis/gilbert/images/columnPartitioning.png"
       inkscape:export-xdpi="300"
       inkscape:export-ydpi="300" />
    <path
       style="fill:#ffff00;fill-opacity:1;stroke:none"
       d="m 361.36213,422.55335 0,-28.54942 27.5089,0.13888 c 25.62424,0.12936 27.57067,0.20065 28.41054,1.04051 0.83987,0.83987 0.91116,2.78631 1.04052,28.41055 l 0.13888,27.50889 -28.54942,0 -28.54942,0 0,-28.54941 z"
       id="path3902"
       inkscape:connector-curvature="0"
       inkscape:export-filename="/Users/till/uni/ws14/dima/mastersthesis/thesis/gilbert/images/columnPartitioning.png"
       inkscape:export-xdpi="300"
       inkscape:export-ydpi="300" />
    <path
       style="fill:#ffff00;fill-opacity:1;stroke:none"
       d="m 361.36213,482.16496 0,-28.53681 28.53681,0 28.53681,0 0,28.53681 0,28.5368 -28.53681,0 -28.53681,0 0,-28.5368 z"
       id="path3904"
       inkscape:connector-curvature="0"
       inkscape:export-filename="/Users/till/uni/ws14/dima/mastersthesis/thesis/gilbert/images/columnPartitioning.png"
       inkscape:export-xdpi="300"
       inkscape:export-ydpi="300" />
    <path
       style="fill:#ffff00;fill-opacity:1;stroke:none"
       d="m 361.36213,542.26903 0,-28.53681 28.53681,0 28.53681,0 0,28.53681 0,28.53681 -28.53681,0 -28.53681,0 0,-28.53681 z"
       id="path3906"
       inkscape:connector-curvature="0"
       inkscape:export-filename="/Users/till/uni/ws14/dima/mastersthesis/thesis/gilbert/images/columnPartitioning.png"
       inkscape:export-xdpi="300"
       inkscape:export-ydpi="300" />
    <path
       style="fill:#ffff00;fill-opacity:1;stroke:none"
       d="m 361.36213,602.12057 0,-28.28427 28.54952,0 28.54953,0 -0.13899,27.22141 c -0.1325,25.9532 -0.1838,27.27092 -1.10114,28.28427 -0.95558,1.05559 -1.14996,1.06286 -28.41054,1.06286 l -27.44838,0 0,-28.28427 z"
       id="path3908"
       inkscape:connector-curvature="0"
       inkscape:export-filename="/Users/till/uni/ws14/dima/mastersthesis/thesis/gilbert/images/columnPartitioning.png"
       inkscape:export-xdpi="300"
       inkscape:export-ydpi="300" />
    <path
       style="fill:#00ff00;fill-opacity:1;stroke:none"
       d="m 181.55498,182.14965 0,-28.53681 28.53681,0 28.53681,0 0,28.53681 0,28.53681 -28.53681,0 -28.53681,0 0,-28.53681 z"
       id="path3854"
       inkscape:connector-curvature="0"
       inkscape:export-filename="/Users/till/uni/ws14/dima/mastersthesis/thesis/gilbert/images/rowPartitioning.png"
       inkscape:export-xdpi="300"
       inkscape:export-ydpi="300" />
    <path
       style="fill:#00ff00;fill-opacity:1;stroke:none"
       d="m 241.65905,182.14965 0,-28.53681 28.53681,0 28.53681,0 0,28.53681 0,28.53681 -28.53681,0 -28.53681,0 0,-28.53681 z"
       id="path3856"
       inkscape:connector-curvature="0"
       inkscape:export-filename="/Users/till/uni/ws14/dima/mastersthesis/thesis/gilbert/images/rowPartitioning.png"
       inkscape:export-xdpi="300"
       inkscape:export-ydpi="300" />
    <path
       style="fill:#00ff00;fill-opacity:1;stroke:none"
       d="m 301.25805,182.14965 0,-28.53681 28.53681,0 28.53681,0 0,28.53681 0,28.53681 -28.53681,0 -28.53681,0 0,-28.53681 z"
       id="path3858"
       inkscape:connector-curvature="0"
       inkscape:export-filename="/Users/till/uni/ws14/dima/mastersthesis/thesis/gilbert/images/rowPartitioning.png"
       inkscape:export-xdpi="300"
       inkscape:export-ydpi="300" />
    <path
       style="fill:#00ff00;fill-opacity:1;stroke:none"
       d="m 361.36213,182.14965 0,-28.53681 28.53681,0 28.53681,0 0,28.53681 0,28.53681 -28.53681,0 -28.53681,0 0,-28.53681 z"
       id="path3860"
       inkscape:connector-curvature="0"
       inkscape:export-filename="/Users/till/uni/ws14/dima/mastersthesis/thesis/gilbert/images/rowPartitioning.png"
       inkscape:export-xdpi="300"
       inkscape:export-ydpi="300" />
    <path
       style="fill:#ff0000;fill-opacity:1;stroke:none"
       d="m 181.55498,242.25373 0,-28.53681 28.53681,0 28.53681,0 0,28.53681 0,28.53681 -28.53681,0 -28.53681,0 0,-28.53681 z"
       id="path3862"
       inkscape:connector-curvature="0"
       inkscape:export-filename="/Users/till/uni/ws14/dima/mastersthesis/thesis/gilbert/images/rowPartitioning.png"
       inkscape:export-xdpi="300"
       inkscape:export-ydpi="300" />
    <path
       style="fill:#ff0000;fill-opacity:1;stroke:none"
       d="m 241.65905,242.25373 0,-28.53681 28.53681,0 28.53681,0 0,28.53681 0,28.53681 -28.53681,0 -28.53681,0 0,-28.53681 z"
       id="path3864"
       inkscape:connector-curvature="0"
       inkscape:export-filename="/Users/till/uni/ws14/dima/mastersthesis/thesis/gilbert/images/rowPartitioning.png"
       inkscape:export-xdpi="300"
       inkscape:export-ydpi="300" />
    <path
       style="fill:#ff0000;fill-opacity:1;stroke:none"
       d="m 301.25805,242.25373 0,-28.53681 28.53681,0 28.53681,0 0,28.53681 0,28.53681 -28.53681,0 -28.53681,0 0,-28.53681 z"
       id="path3866"
       inkscape:connector-curvature="0"
       inkscape:export-filename="/Users/till/uni/ws14/dima/mastersthesis/thesis/gilbert/images/rowPartitioning.png"
       inkscape:export-xdpi="300"
       inkscape:export-ydpi="300" />
    <path
       style="fill:#ff0000;fill-opacity:1;stroke:none"
       d="m 361.36213,242.25373 0,-28.53681 28.53681,0 28.53681,0 0,28.53681 0,28.53681 -28.53681,0 -28.53681,0 0,-28.53681 z"
       id="path3868"
       inkscape:connector-curvature="0"
       inkscape:export-filename="/Users/till/uni/ws14/dima/mastersthesis/thesis/gilbert/images/rowPartitioning.png"
       inkscape:export-xdpi="300"
       inkscape:export-ydpi="300" />
    <path
       style="fill:#0000ff;fill-opacity:1;stroke:none"
       d="m 183.22807,329.99272 c -1.52792,-0.97154 -1.67309,-3.54753 -1.67309,-29.6881 l 0,-26.48363 28.53681,0 28.53681,0 0,28.28427 0,28.28428 -27.40039,-0.008 c -15.07021,-0.004 -27.67028,-0.17934 -28.00014,-0.38909 l 0,0 z"
       id="path3870"
       inkscape:connector-curvature="0"
       inkscape:export-filename="/Users/till/uni/ws14/dima/mastersthesis/thesis/gilbert/images/rowPartitioning.png"
       inkscape:export-xdpi="300"
       inkscape:export-ydpi="300" />
    <path
       style="fill:#0000ff;fill-opacity:1;stroke:none"
       d="m 241.65905,302.10526 0,-28.28427 28.53681,0 28.53681,0 0,28.28427 0,28.28428 -28.53681,0 -28.53681,0 0,-28.28428 z"
       id="path3872"
       inkscape:connector-curvature="0"
       inkscape:export-filename="/Users/till/uni/ws14/dima/mastersthesis/thesis/gilbert/images/rowPartitioning.png"
       inkscape:export-xdpi="300"
       inkscape:export-ydpi="300" />
    <path
       style="fill:#0000ff;fill-opacity:1;stroke:none"
       d="m 301.25805,302.10526 0,-28.28427 28.53681,0 28.53681,0 0,28.28427 0,28.28428 -28.53681,0 -28.53681,0 0,-28.28428 z"
       id="path3874"
       inkscape:connector-curvature="0"
       inkscape:export-filename="/Users/till/uni/ws14/dima/mastersthesis/thesis/gilbert/images/rowPartitioning.png"
       inkscape:export-xdpi="300"
       inkscape:export-ydpi="300" />
    <path
       style="fill:#0000ff;fill-opacity:1;stroke:none"
       d="m 361.36213,302.10526 0,-28.28427 28.53681,0 28.53681,0 0,26.48363 c 0,26.14057 -0.14517,28.71656 -1.6731,29.6881 -0.32986,0.20974 -12.92992,0.38483 -28.00013,0.38908 l -27.40039,0.008 0,-28.28428 z"
       id="path3876"
       inkscape:connector-curvature="0"
       inkscape:export-filename="/Users/till/uni/ws14/dima/mastersthesis/thesis/gilbert/images/rowPartitioning.png"
       inkscape:export-xdpi="300"
       inkscape:export-ydpi="300" />
    <path
       style="fill:#ffff00;fill-opacity:1;stroke:none"
       d="m 181.55498,124.64632 c 0,-18.25155 0.17563,-26.944957 0.56706,-28.067796 0.32868,-0.94286 1.08562,-1.823823 1.80064,-2.095675 0.70276,-0.267186 12.73866,-0.469009 27.96975,-0.469009 l 26.73617,0 0,28.53681 0,28.53681 -28.53681,0 -28.53681,0 0,-26.44114 z"
       id="path3846"
       inkscape:connector-curvature="0"
       inkscape:export-filename="/Users/till/uni/ws14/dima/mastersthesis/thesis/gilbert/images/rowPartitioning.png"
       inkscape:export-xdpi="300"
       inkscape:export-ydpi="300" />
    <path
       style="fill:#ffff00;fill-opacity:1;stroke:none"
       d="m 241.65905,122.55065 0,-28.53681 28.53681,0 28.53681,0 0,28.53681 0,28.53681 -28.53681,0 -28.53681,0 0,-28.53681 z"
       id="path3848"
       inkscape:connector-curvature="0"
       inkscape:export-filename="/Users/till/uni/ws14/dima/mastersthesis/thesis/gilbert/images/rowPartitioning.png"
       inkscape:export-xdpi="300"
       inkscape:export-ydpi="300" />
    <path
       style="fill:#ffff00;fill-opacity:1;stroke:none"
       d="m 301.25805,122.55065 0,-28.53681 28.53681,0 28.53681,0 0,28.53681 0,28.53681 -28.53681,0 -28.53681,0 0,-28.53681 z"
       id="path3850"
       inkscape:connector-curvature="0"
       inkscape:export-filename="/Users/till/uni/ws14/dima/mastersthesis/thesis/gilbert/images/rowPartitioning.png"
       inkscape:export-xdpi="300"
       inkscape:export-ydpi="300" />
    <path
       style="fill:#ffff00;fill-opacity:1;stroke:none"
       d="m 361.36213,122.55065 0,-28.53681 26.73616,0 c 15.23109,0 27.267,0.201823 27.96975,0.469009 0.71502,0.271852 1.47197,1.152815 1.80065,2.095675 0.39142,1.122839 0.56706,9.816246 0.56706,28.067796 l 0,26.44114 -28.53681,0 -28.53681,0 0,-28.53681 z"
       id="path3852"
       inkscape:connector-curvature="0"
       inkscape:export-filename="/Users/till/uni/ws14/dima/mastersthesis/thesis/gilbert/images/rowPartitioning.png"
       inkscape:export-xdpi="300"
       inkscape:export-ydpi="300" />
    <g
       id="g3769"
       transform="matrix(1,0,0,-1,-20,444.72436)"
       style="fill:#cccccc;stroke:#999999;stroke-width:4;stroke-miterlimit:4;stroke-dasharray:none"
       inkscape:export-filename="/Users/till/uni/ws14/dima/mastersthesis/thesis/gilbert/images/rowPartitioning.png"
       inkscape:export-xdpi="300"
       inkscape:export-ydpi="300">
      <path
         sodipodi:nodetypes="cc"
         inkscape:connector-curvature="0"
         id="path3757"
         d="m 200,172.36218 240,0"
         style="fill:#cccccc;stroke:#999999;stroke-width:4;stroke-linecap:butt;stroke-linejoin:miter;stroke-miterlimit:4;stroke-opacity:1;stroke-dasharray:none" />
      <path
         sodipodi:nodetypes="cc"
         inkscape:connector-curvature="0"
         id="path3759"
         d="m 200,232.36218 240,0"
         style="fill:#cccccc;stroke:#999999;stroke-width:4;stroke-linecap:butt;stroke-linejoin:miter;stroke-miterlimit:4;stroke-opacity:1;stroke-dasharray:none" />
      <path
         sodipodi:nodetypes="cc"
         inkscape:connector-curvature="0"
         id="path3761"
         d="m 200,292.36218 240,0"
         style="fill:#cccccc;stroke:#999999;stroke-width:4;stroke-linecap:butt;stroke-linejoin:miter;stroke-miterlimit:4;stroke-opacity:1;stroke-dasharray:none" />
      <path
         inkscape:connector-curvature="0"
         id="path3763"
         d="m 260,112.36218 0,240"
         style="fill:#cccccc;stroke:#999999;stroke-width:4;stroke-linecap:butt;stroke-linejoin:miter;stroke-miterlimit:4;stroke-opacity:1;stroke-dasharray:none" />
      <path
         inkscape:connector-curvature="0"
         id="path3765"
         d="m 320,112.36218 0,240"
         style="fill:#cccccc;stroke:#999999;stroke-width:4;stroke-linecap:butt;stroke-linejoin:miter;stroke-miterlimit:4;stroke-opacity:1;stroke-dasharray:none" />
      <path
         inkscape:connector-curvature="0"
         id="path3767"
         d="m 380,112.36218 0,240"
         style="fill:#cccccc;stroke:#999999;stroke-width:4;stroke-linecap:butt;stroke-linejoin:miter;stroke-miterlimit:4;stroke-opacity:1;stroke-dasharray:none" />
    </g>
    <rect
       style="fill:none;stroke:#666666;stroke-width:4;stroke-linejoin:round;stroke-miterlimit:4;stroke-dasharray:none;stroke-dashoffset:0"
       id="rect2987"
       width="240"
       height="240"
       x="180"
       y="-332.36218"
       ry="5"
       transform="scale(1,-1)"
       inkscape:export-filename="/Users/till/uni/ws14/dima/mastersthesis/thesis/gilbert/images/rowPartitioning.png"
       inkscape:export-xdpi="300"
       inkscape:export-ydpi="300" />
    <g
       style="fill:#cccccc;stroke:#999999;stroke-width:4;stroke-miterlimit:4;stroke-dasharray:none"
       transform="matrix(1,0,0,-1,-20,744.72436)"
       id="g3808"
       inkscape:export-filename="/Users/till/uni/ws14/dima/mastersthesis/thesis/gilbert/images/columnPartitioning.png"
       inkscape:export-xdpi="300"
       inkscape:export-ydpi="300">
      <path
         style="fill:#cccccc;stroke:#999999;stroke-width:4;stroke-linecap:butt;stroke-linejoin:miter;stroke-miterlimit:4;stroke-opacity:1;stroke-dasharray:none"
         d="m 200,172.36218 240,0"
         id="path3810"
         inkscape:connector-curvature="0"
         sodipodi:nodetypes="cc" />
      <path
         style="fill:#cccccc;stroke:#999999;stroke-width:4;stroke-linecap:butt;stroke-linejoin:miter;stroke-miterlimit:4;stroke-opacity:1;stroke-dasharray:none"
         d="m 200,232.36218 240,0"
         id="path3812"
         inkscape:connector-curvature="0"
         sodipodi:nodetypes="cc" />
      <path
         style="fill:#cccccc;stroke:#999999;stroke-width:4;stroke-linecap:butt;stroke-linejoin:miter;stroke-miterlimit:4;stroke-opacity:1;stroke-dasharray:none"
         d="m 200,292.36218 240,0"
         id="path3814"
         inkscape:connector-curvature="0"
         sodipodi:nodetypes="cc" />
      <path
         style="fill:#cccccc;stroke:#999999;stroke-width:4;stroke-linecap:butt;stroke-linejoin:miter;stroke-miterlimit:4;stroke-opacity:1;stroke-dasharray:none"
         d="m 260,112.36218 0,240"
         id="path3816"
         inkscape:connector-curvature="0" />
      <path
         style="fill:#cccccc;stroke:#999999;stroke-width:4;stroke-linecap:butt;stroke-linejoin:miter;stroke-miterlimit:4;stroke-opacity:1;stroke-dasharray:none"
         d="m 320,112.36218 0,240"
         id="path3818"
         inkscape:connector-curvature="0" />
      <path
         style="fill:#cccccc;stroke:#999999;stroke-width:4;stroke-linecap:butt;stroke-linejoin:miter;stroke-miterlimit:4;stroke-opacity:1;stroke-dasharray:none"
         d="m 380,112.36218 0,240"
         id="path3820"
         inkscape:connector-curvature="0" />
    </g>
    <rect
       transform="scale(1,-1)"
       ry="5"
       y="-632.36218"
       x="180"
       height="240"
       width="240"
       id="rect3822"
       style="fill:none;stroke:#666666;stroke-width:4;stroke-linejoin:round;stroke-miterlimit:4;stroke-dasharray:none;stroke-dashoffset:0"
       inkscape:export-filename="/Users/till/uni/ws14/dima/mastersthesis/thesis/gilbert/images/columnPartitioning.png"
       inkscape:export-xdpi="300"
       inkscape:export-ydpi="300" />
    <g
       id="g3824"
       transform="matrix(1,0,0,-1,-20,1044.7244)"
       style="fill:#cccccc;stroke:#999999;stroke-width:4;stroke-miterlimit:4;stroke-dasharray:none"
       inkscape:export-filename="/Users/till/uni/ws14/dima/mastersthesis/thesis/gilbert/images/quadraticBlockPartitioning.png"
       inkscape:export-xdpi="300"
       inkscape:export-ydpi="300">
      <path
         sodipodi:nodetypes="cc"
         inkscape:connector-curvature="0"
         id="path3826"
         d="m 200,172.36218 240,0"
         style="fill:#cccccc;stroke:#999999;stroke-width:4;stroke-linecap:butt;stroke-linejoin:miter;stroke-miterlimit:4;stroke-opacity:1;stroke-dasharray:none" />
      <path
         sodipodi:nodetypes="cc"
         inkscape:connector-curvature="0"
         id="path3828"
         d="m 200,232.36218 240,0"
         style="fill:#cccccc;stroke:#999999;stroke-width:4;stroke-linecap:butt;stroke-linejoin:miter;stroke-miterlimit:4;stroke-opacity:1;stroke-dasharray:none" />
      <path
         sodipodi:nodetypes="cc"
         inkscape:connector-curvature="0"
         id="path3830"
         d="m 200,292.36218 240,0"
         style="fill:#cccccc;stroke:#999999;stroke-width:4;stroke-linecap:butt;stroke-linejoin:miter;stroke-miterlimit:4;stroke-opacity:1;stroke-dasharray:none" />
      <path
         inkscape:connector-curvature="0"
         id="path3832"
         d="m 260,112.36218 0,240"
         style="fill:#cccccc;stroke:#999999;stroke-width:4;stroke-linecap:butt;stroke-linejoin:miter;stroke-miterlimit:4;stroke-opacity:1;stroke-dasharray:none" />
      <path
         inkscape:connector-curvature="0"
         id="path3834"
         d="m 320,112.36218 0,240"
         style="fill:#cccccc;stroke:#999999;stroke-width:4;stroke-linecap:butt;stroke-linejoin:miter;stroke-miterlimit:4;stroke-opacity:1;stroke-dasharray:none" />
      <path
         inkscape:connector-curvature="0"
         id="path3836"
         d="m 380,112.36218 0,240"
         style="fill:#cccccc;stroke:#999999;stroke-width:4;stroke-linecap:butt;stroke-linejoin:miter;stroke-miterlimit:4;stroke-opacity:1;stroke-dasharray:none" />
    </g>
    <rect
       style="fill:none;stroke:#666666;stroke-width:4;stroke-linejoin:round;stroke-miterlimit:4;stroke-dasharray:none;stroke-dashoffset:0"
       id="rect3838"
       width="240"
       height="240"
       x="180"
       y="-932.36218"
       ry="5"
       transform="scale(1,-1)"
       inkscape:export-filename="/Users/till/uni/ws14/dima/mastersthesis/thesis/gilbert/images/quadraticBlockPartitioning.png"
       inkscape:export-xdpi="300"
       inkscape:export-ydpi="300" />
  </g>
</svg>
