<?xml version="1.0" encoding="UTF-8" standalone="no"?>
<!-- Created with Inkscape (http://www.inkscape.org/) -->

<svg
   xmlns:dc="http://purl.org/dc/elements/1.1/"
   xmlns:cc="http://creativecommons.org/ns#"
   xmlns:rdf="http://www.w3.org/1999/02/22-rdf-syntax-ns#"
   xmlns:svg="http://www.w3.org/2000/svg"
   xmlns="http://www.w3.org/2000/svg"
   xmlns:sodipodi="http://sodipodi.sourceforge.net/DTD/sodipodi-0.dtd"
   xmlns:inkscape="http://www.inkscape.org/namespaces/inkscape"
   width="744.09448819"
   height="1052.3622047"
   id="svg2"
   version="1.1"
   inkscape:version="0.48.2 r9819"
   sodipodi:docname="rowmm.svg">
  <defs
     id="defs4" />
  <sodipodi:namedview
     id="base"
     pagecolor="#ffffff"
     bordercolor="#666666"
     borderopacity="1.0"
     inkscape:pageopacity="0.0"
     inkscape:pageshadow="2"
     inkscape:zoom="0.34325423"
     inkscape:cx="203.32083"
     inkscape:cy="890.45861"
     inkscape:document-units="px"
     inkscape:current-layer="layer1"
     showgrid="true"
     inkscape:window-width="1401"
     inkscape:window-height="856"
     inkscape:window-x="39"
     inkscape:window-y="22"
     inkscape:window-maximized="1">
    <inkscape:grid
       type="xygrid"
       id="grid2985" />
  </sodipodi:namedview>
  <metadata
     id="metadata7">
    <rdf:RDF>
      <cc:Work
         rdf:about="">
        <dc:format>image/svg+xml</dc:format>
        <dc:type
           rdf:resource="http://purl.org/dc/dcmitype/StillImage" />
        <dc:title></dc:title>
      </cc:Work>
    </rdf:RDF>
  </metadata>
  <g
     inkscape:label="Layer 1"
     inkscape:groupmode="layer"
     id="layer1">
    <path
       style="fill:#00ff00;fill-opacity:1;stroke:none;opacity:1"
       d="m 197.46752,181.32382 0,-28.53681 28.53681,0 28.53681,0 0,28.53681 0,28.53681 -28.53681,0 -28.53681,0 0,-28.53681 z"
       id="path3854"
       inkscape:connector-curvature="0"
       inkscape:export-filename="/Users/till/uni/ws14/dima/mastersthesis/thesis/gilbert/images/rowMM.png"
       inkscape:export-xdpi="300"
       inkscape:export-ydpi="300" />
    <path
       style="fill:#00ff00;fill-opacity:1;stroke:none;opacity:1"
       d="m 257.57159,181.32382 0,-28.53681 28.53681,0 28.53681,0 0,28.53681 0,28.53681 -28.53681,0 -28.53681,0 0,-28.53681 z"
       id="path3856"
       inkscape:connector-curvature="0"
       inkscape:export-filename="/Users/till/uni/ws14/dima/mastersthesis/thesis/gilbert/images/rowMM.png"
       inkscape:export-xdpi="300"
       inkscape:export-ydpi="300" />
    <path
       style="fill:#00ff00;fill-opacity:1;stroke:none;opacity:1"
       d="m 317.17059,181.32382 0,-28.53681 28.53681,0 28.53681,0 0,28.53681 0,28.53681 -28.53681,0 -28.53681,0 0,-28.53681 z"
       id="path3858"
       inkscape:connector-curvature="0"
       inkscape:export-filename="/Users/till/uni/ws14/dima/mastersthesis/thesis/gilbert/images/rowMM.png"
       inkscape:export-xdpi="300"
       inkscape:export-ydpi="300" />
    <path
       style="fill:#00ff00;fill-opacity:1;stroke:none;opacity:1"
       d="m 377.27467,181.32382 0,-28.53681 28.53681,0 28.53681,0 0,28.53681 0,28.53681 -28.53681,0 -28.53681,0 0,-28.53681 z"
       id="path3860"
       inkscape:connector-curvature="0"
       inkscape:export-filename="/Users/till/uni/ws14/dima/mastersthesis/thesis/gilbert/images/rowMM.png"
       inkscape:export-xdpi="300"
       inkscape:export-ydpi="300" />
    <path
       style="fill:#ff0000;fill-opacity:1;stroke:none;opacity:0.3"
       d="m 197.46752,241.4279 0,-28.53681 28.53681,0 28.53681,0 0,28.53681 0,28.53681 -28.53681,0 -28.53681,0 0,-28.53681 z"
       id="path3862"
       inkscape:connector-curvature="0"
       inkscape:export-filename="/Users/till/uni/ws14/dima/mastersthesis/thesis/gilbert/images/rowMM.png"
       inkscape:export-xdpi="300"
       inkscape:export-ydpi="300" />
    <path
       style="fill:#ff0000;fill-opacity:1;stroke:none;opacity:0.3"
       d="m 257.57159,241.4279 0,-28.53681 28.53681,0 28.53681,0 0,28.53681 0,28.53681 -28.53681,0 -28.53681,0 0,-28.53681 z"
       id="path3864"
       inkscape:connector-curvature="0"
       inkscape:export-filename="/Users/till/uni/ws14/dima/mastersthesis/thesis/gilbert/images/rowMM.png"
       inkscape:export-xdpi="300"
       inkscape:export-ydpi="300" />
    <path
       style="fill:#ff0000;fill-opacity:1;stroke:none;opacity:0.3"
       d="m 317.17059,241.4279 0,-28.53681 28.53681,0 28.53681,0 0,28.53681 0,28.53681 -28.53681,0 -28.53681,0 0,-28.53681 z"
       id="path3866"
       inkscape:connector-curvature="0"
       inkscape:export-filename="/Users/till/uni/ws14/dima/mastersthesis/thesis/gilbert/images/rowMM.png"
       inkscape:export-xdpi="300"
       inkscape:export-ydpi="300" />
    <path
       style="fill:#ff0000;fill-opacity:1;stroke:none;opacity:0.3"
       d="m 377.27467,241.4279 0,-28.53681 28.53681,0 28.53681,0 0,28.53681 0,28.53681 -28.53681,0 -28.53681,0 0,-28.53681 z"
       id="path3868"
       inkscape:connector-curvature="0"
       inkscape:export-filename="/Users/till/uni/ws14/dima/mastersthesis/thesis/gilbert/images/rowMM.png"
       inkscape:export-xdpi="300"
       inkscape:export-ydpi="300" />
    <path
       style="fill:#0000ff;fill-opacity:1;stroke:none;opacity:0.3"
       d="m 199.14061,329.16689 c -1.52792,-0.97154 -1.67309,-3.54753 -1.67309,-29.6881 l 0,-26.48363 28.53681,0 28.53681,0 0,28.28427 0,28.28428 -27.40039,-0.008 c -15.07021,-0.004 -27.67028,-0.17934 -28.00014,-0.38909 l 0,0 z"
       id="path3870"
       inkscape:connector-curvature="0"
       inkscape:export-filename="/Users/till/uni/ws14/dima/mastersthesis/thesis/gilbert/images/rowMM.png"
       inkscape:export-xdpi="300"
       inkscape:export-ydpi="300" />
    <path
       style="fill:#0000ff;fill-opacity:1;stroke:none;opacity:0.3"
       d="m 257.57159,301.27943 0,-28.28427 28.53681,0 28.53681,0 0,28.28427 0,28.28428 -28.53681,0 -28.53681,0 0,-28.28428 z"
       id="path3872"
       inkscape:connector-curvature="0"
       inkscape:export-filename="/Users/till/uni/ws14/dima/mastersthesis/thesis/gilbert/images/rowMM.png"
       inkscape:export-xdpi="300"
       inkscape:export-ydpi="300" />
    <path
       style="fill:#0000ff;fill-opacity:1;stroke:none;opacity:0.3"
       d="m 317.17059,301.27943 0,-28.28427 28.53681,0 28.53681,0 0,28.28427 0,28.28428 -28.53681,0 -28.53681,0 0,-28.28428 z"
       id="path3874"
       inkscape:connector-curvature="0"
       inkscape:export-filename="/Users/till/uni/ws14/dima/mastersthesis/thesis/gilbert/images/rowMM.png"
       inkscape:export-xdpi="300"
       inkscape:export-ydpi="300" />
    <path
       style="fill:#0000ff;fill-opacity:1;stroke:none;opacity:0.3"
       d="m 377.27467,301.27943 0,-28.28427 28.53681,0 28.53681,0 0,26.48363 c 0,26.14057 -0.14517,28.71656 -1.6731,29.6881 -0.32986,0.20974 -12.92992,0.38483 -28.00013,0.38908 l -27.40039,0.008 0,-28.28428 z"
       id="path3876"
       inkscape:connector-curvature="0"
       inkscape:export-filename="/Users/till/uni/ws14/dima/mastersthesis/thesis/gilbert/images/rowMM.png"
       inkscape:export-xdpi="300"
       inkscape:export-ydpi="300" />
    <path
       style="fill:#ffff00;fill-opacity:1;stroke:none;opacity:0.3"
       d="m 197.46752,123.82049 c 0,-18.25155 0.17563,-26.944962 0.56706,-28.067801 0.32868,-0.94286 1.08562,-1.823823 1.80064,-2.095675 0.70276,-0.267186 12.73866,-0.469009 27.96975,-0.469009 l 26.73617,0 0,28.536815 0,28.53681 -28.53681,0 -28.53681,0 0,-26.44114 z"
       id="path3846"
       inkscape:connector-curvature="0"
       inkscape:export-filename="/Users/till/uni/ws14/dima/mastersthesis/thesis/gilbert/images/rowMM.png"
       inkscape:export-xdpi="300"
       inkscape:export-ydpi="300" />
    <path
       style="fill:#ffff00;fill-opacity:1;stroke:none;opacity:0.3"
       d="m 257.57159,121.72482 0,-28.536815 28.53681,0 28.53681,0 0,28.536815 0,28.53681 -28.53681,0 -28.53681,0 0,-28.53681 z"
       id="path3848"
       inkscape:connector-curvature="0"
       inkscape:export-filename="/Users/till/uni/ws14/dima/mastersthesis/thesis/gilbert/images/rowMM.png"
       inkscape:export-xdpi="300"
       inkscape:export-ydpi="300" />
    <path
       style="fill:#ffff00;fill-opacity:1;stroke:none;opacity:0.3"
       d="m 317.17059,121.72482 0,-28.536815 28.53681,0 28.53681,0 0,28.536815 0,28.53681 -28.53681,0 -28.53681,0 0,-28.53681 z"
       id="path3850"
       inkscape:connector-curvature="0"
       inkscape:export-filename="/Users/till/uni/ws14/dima/mastersthesis/thesis/gilbert/images/rowMM.png"
       inkscape:export-xdpi="300"
       inkscape:export-ydpi="300" />
    <path
       style="fill:#ffff00;fill-opacity:1;stroke:none;opacity:0.3"
       d="m 377.27467,121.72482 0,-28.536815 26.73616,0 c 15.23109,0 27.267,0.201823 27.96975,0.469009 0.71502,0.271852 1.47197,1.152815 1.80065,2.095675 0.39142,1.122839 0.56706,9.816251 0.56706,28.067801 l 0,26.44114 -28.53681,0 -28.53681,0 0,-28.53681 z"
       id="path3852"
       inkscape:connector-curvature="0"
       inkscape:export-filename="/Users/till/uni/ws14/dima/mastersthesis/thesis/gilbert/images/rowMM.png"
       inkscape:export-xdpi="300"
       inkscape:export-ydpi="300" />
    <path
       style="fill:#cccccc;stroke:#999999;stroke-width:4;stroke-linecap:butt;stroke-linejoin:miter;stroke-miterlimit:4;stroke-opacity:1;stroke-dasharray:none"
       d="m 195.91254,271.53635 240,0"
       id="path3757"
       inkscape:connector-curvature="0"
       sodipodi:nodetypes="cc" />
    <path
       style="fill:#cccccc;stroke:#999999;stroke-width:4;stroke-linecap:butt;stroke-linejoin:miter;stroke-miterlimit:4;stroke-opacity:1;stroke-dasharray:none"
       d="m 195.91254,211.53635 240,0"
       id="path3759"
       inkscape:connector-curvature="0"
       sodipodi:nodetypes="cc" />
    <path
       style="fill:#999999;stroke:#999999;stroke-width:4;stroke-linecap:butt;stroke-linejoin:miter;stroke-miterlimit:4;stroke-opacity:1;stroke-dasharray:none"
       d="m 195.91254,151.53635 240,0"
       id="path3761"
       inkscape:connector-curvature="0"
       sodipodi:nodetypes="cc" />
    <path
       style="fill:#cccccc;stroke:#999999;stroke-width:4;stroke-linecap:butt;stroke-linejoin:miter;stroke-miterlimit:4;stroke-opacity:1;stroke-dasharray:none"
       d="m 255.91254,331.53635 0,-240"
       id="path3763"
       inkscape:connector-curvature="0" />
    <path
       style="fill:#cccccc;stroke:#999999;stroke-width:4;stroke-linecap:butt;stroke-linejoin:miter;stroke-miterlimit:4;stroke-opacity:1;stroke-dasharray:none"
       d="m 315.91254,331.53635 0,-240"
       id="path3765"
       inkscape:connector-curvature="0" />
    <path
       style="fill:#cccccc;stroke:#999999;stroke-width:4;stroke-linecap:butt;stroke-linejoin:miter;stroke-miterlimit:4;stroke-opacity:1;stroke-dasharray:none"
       d="m 375.91254,331.53635 0,-240"
       id="path3767"
       inkscape:connector-curvature="0" />
    <rect
       style="fill:none;stroke:#666666;stroke-width:4;stroke-linejoin:round;stroke-miterlimit:4;stroke-dasharray:none;stroke-dashoffset:0;opacity:1"
       id="rect2987"
       width="240"
       height="240"
       x="195.91254"
       y="-331.53635"
       ry="5"
       transform="scale(1,-1)"
       inkscape:export-filename="/Users/till/uni/ws14/dima/mastersthesis/thesis/gilbert/images/rowMM.png"
       inkscape:export-xdpi="300"
       inkscape:export-ydpi="300" />
    <g
       id="g4128"
       transform="translate(30.152527,0.82583131)"
       inkscape:export-filename="/Users/till/uni/ws14/dima/mastersthesis/thesis/gilbert/images/rowMM.png"
       inkscape:export-xdpi="300"
       inkscape:export-ydpi="300"
       style="opacity:1">
      <path
         style="fill:#00ff00;fill-opacity:1;stroke:none"
         d="m 500.19285,180.49799 0,-28.53681 28.53681,0 28.53681,0 0,28.53681 0,28.53681 -28.53681,0 -28.53681,0 0,-28.53681 z"
         id="path3982"
         inkscape:connector-curvature="0"
         inkscape:export-filename="/Users/till/uni/ws14/dima/mastersthesis/thesis/gilbert/images/rowPartitioning.png"
         inkscape:export-xdpi="300"
         inkscape:export-ydpi="300" />
      <path
         style="fill:#00ff00;fill-opacity:1;stroke:none"
         d="m 560.29692,180.49799 0,-28.53681 28.53681,0 28.53681,0 0,28.53681 0,28.53681 -28.53681,0 -28.53681,0 0,-28.53681 z"
         id="path3984"
         inkscape:connector-curvature="0"
         inkscape:export-filename="/Users/till/uni/ws14/dima/mastersthesis/thesis/gilbert/images/rowPartitioning.png"
         inkscape:export-xdpi="300"
         inkscape:export-ydpi="300" />
      <path
         style="fill:#00ff00;fill-opacity:1;stroke:none"
         d="m 619.89592,180.49799 0,-28.53681 28.53681,0 28.53681,0 0,28.53681 0,28.53681 -28.53681,0 -28.53681,0 0,-28.53681 z"
         id="path3986"
         inkscape:connector-curvature="0"
         inkscape:export-filename="/Users/till/uni/ws14/dima/mastersthesis/thesis/gilbert/images/rowPartitioning.png"
         inkscape:export-xdpi="300"
         inkscape:export-ydpi="300" />
      <path
         style="fill:#00ff00;fill-opacity:1;stroke:none"
         d="m 680,180.49799 0,-28.53681 28.53681,0 28.53681,0 0,28.53681 0,28.53681 -28.53681,0 -28.53681,0 0,-28.53681 z"
         id="path3988"
         inkscape:connector-curvature="0"
         inkscape:export-filename="/Users/till/uni/ws14/dima/mastersthesis/thesis/gilbert/images/rowPartitioning.png"
         inkscape:export-xdpi="300"
         inkscape:export-ydpi="300" />
      <path
         style="fill:#ff0000;fill-opacity:1;stroke:none"
         d="m 500.19285,240.60207 0,-28.53681 28.53681,0 28.53681,0 0,28.53681 0,28.53681 -28.53681,0 -28.53681,0 0,-28.53681 z"
         id="path3990"
         inkscape:connector-curvature="0"
         inkscape:export-filename="/Users/till/uni/ws14/dima/mastersthesis/thesis/gilbert/images/rowPartitioning.png"
         inkscape:export-xdpi="300"
         inkscape:export-ydpi="300" />
      <path
         style="fill:#ff0000;fill-opacity:1;stroke:none"
         d="m 560.29692,240.60207 0,-28.53681 28.53681,0 28.53681,0 0,28.53681 0,28.53681 -28.53681,0 -28.53681,0 0,-28.53681 z"
         id="path3992"
         inkscape:connector-curvature="0"
         inkscape:export-filename="/Users/till/uni/ws14/dima/mastersthesis/thesis/gilbert/images/rowPartitioning.png"
         inkscape:export-xdpi="300"
         inkscape:export-ydpi="300" />
      <path
         style="fill:#ff0000;fill-opacity:1;stroke:none"
         d="m 619.89592,240.60207 0,-28.53681 28.53681,0 28.53681,0 0,28.53681 0,28.53681 -28.53681,0 -28.53681,0 0,-28.53681 z"
         id="path3994"
         inkscape:connector-curvature="0"
         inkscape:export-filename="/Users/till/uni/ws14/dima/mastersthesis/thesis/gilbert/images/rowPartitioning.png"
         inkscape:export-xdpi="300"
         inkscape:export-ydpi="300" />
      <path
         style="fill:#ff0000;fill-opacity:1;stroke:none"
         d="m 680,240.60207 0,-28.53681 28.53681,0 28.53681,0 0,28.53681 0,28.53681 -28.53681,0 -28.53681,0 0,-28.53681 z"
         id="path3996"
         inkscape:connector-curvature="0"
         inkscape:export-filename="/Users/till/uni/ws14/dima/mastersthesis/thesis/gilbert/images/rowPartitioning.png"
         inkscape:export-xdpi="300"
         inkscape:export-ydpi="300" />
      <path
         style="fill:#0000ff;fill-opacity:1;stroke:none"
         d="m 501.86594,328.34106 c -1.52792,-0.97154 -1.67309,-3.54753 -1.67309,-29.6881 l 0,-26.48363 28.53681,0 28.53681,0 0,28.28427 0,28.28428 -27.40039,-0.008 c -15.07021,-0.004 -27.67028,-0.17934 -28.00014,-0.38909 l 0,0 z"
         id="path3998"
         inkscape:connector-curvature="0"
         inkscape:export-filename="/Users/till/uni/ws14/dima/mastersthesis/thesis/gilbert/images/rowPartitioning.png"
         inkscape:export-xdpi="300"
         inkscape:export-ydpi="300" />
      <path
         style="fill:#0000ff;fill-opacity:1;stroke:none"
         d="m 560.29692,300.4536 0,-28.28427 28.53681,0 28.53681,0 0,28.28427 0,28.28428 -28.53681,0 -28.53681,0 0,-28.28428 z"
         id="path4000"
         inkscape:connector-curvature="0"
         inkscape:export-filename="/Users/till/uni/ws14/dima/mastersthesis/thesis/gilbert/images/rowPartitioning.png"
         inkscape:export-xdpi="300"
         inkscape:export-ydpi="300" />
      <path
         style="fill:#0000ff;fill-opacity:1;stroke:none"
         d="m 619.89592,300.4536 0,-28.28427 28.53681,0 28.53681,0 0,28.28427 0,28.28428 -28.53681,0 -28.53681,0 0,-28.28428 z"
         id="path4002"
         inkscape:connector-curvature="0"
         inkscape:export-filename="/Users/till/uni/ws14/dima/mastersthesis/thesis/gilbert/images/rowPartitioning.png"
         inkscape:export-xdpi="300"
         inkscape:export-ydpi="300" />
      <path
         style="fill:#0000ff;fill-opacity:1;stroke:none"
         d="m 680,300.4536 0,-28.28427 28.53681,0 28.53681,0 0,26.48363 c 0,26.14057 -0.14517,28.71656 -1.6731,29.6881 -0.32986,0.20974 -12.92992,0.38483 -28.00013,0.38908 l -27.40039,0.008 0,-28.28428 z"
         id="path4004"
         inkscape:connector-curvature="0"
         inkscape:export-filename="/Users/till/uni/ws14/dima/mastersthesis/thesis/gilbert/images/rowPartitioning.png"
         inkscape:export-xdpi="300"
         inkscape:export-ydpi="300" />
      <path
         style="fill:#ffff00;fill-opacity:1;stroke:none"
         d="m 500.19285,122.99466 c 0,-18.25155 0.17563,-26.944954 0.56706,-28.067793 0.32868,-0.94286 1.08562,-1.823823 1.80064,-2.095675 0.70276,-0.267186 12.73866,-0.469009 27.96975,-0.469009 l 26.73617,0 0,28.536807 0,28.53681 -28.53681,0 -28.53681,0 0,-26.44114 z"
         id="path4006"
         inkscape:connector-curvature="0"
         inkscape:export-filename="/Users/till/uni/ws14/dima/mastersthesis/thesis/gilbert/images/rowPartitioning.png"
         inkscape:export-xdpi="300"
         inkscape:export-ydpi="300" />
      <path
         style="fill:#ffff00;fill-opacity:1;stroke:none"
         d="m 560.29692,120.89899 0,-28.536807 28.53681,0 28.53681,0 0,28.536807 0,28.53681 -28.53681,0 -28.53681,0 0,-28.53681 z"
         id="path4008"
         inkscape:connector-curvature="0"
         inkscape:export-filename="/Users/till/uni/ws14/dima/mastersthesis/thesis/gilbert/images/rowPartitioning.png"
         inkscape:export-xdpi="300"
         inkscape:export-ydpi="300" />
      <path
         style="fill:#ffff00;fill-opacity:1;stroke:none"
         d="m 619.89592,120.89899 0,-28.536807 28.53681,0 28.53681,0 0,28.536807 0,28.53681 -28.53681,0 -28.53681,0 0,-28.53681 z"
         id="path4010"
         inkscape:connector-curvature="0"
         inkscape:export-filename="/Users/till/uni/ws14/dima/mastersthesis/thesis/gilbert/images/rowPartitioning.png"
         inkscape:export-xdpi="300"
         inkscape:export-ydpi="300" />
      <path
         style="fill:#ffff00;fill-opacity:1;stroke:none"
         d="m 680,120.89899 0,-28.536807 26.73616,0 c 15.23109,0 27.267,0.201823 27.96975,0.469009 0.71502,0.271852 1.47197,1.152815 1.80065,2.095675 0.39142,1.122839 0.56706,9.816243 0.56706,28.067793 l 0,26.44114 -28.53681,0 -28.53681,0 0,-28.53681 z"
         id="path4012"
         inkscape:connector-curvature="0"
         inkscape:export-filename="/Users/till/uni/ws14/dima/mastersthesis/thesis/gilbert/images/rowPartitioning.png"
         inkscape:export-xdpi="300"
         inkscape:export-ydpi="300" />
      <g
         id="g4014"
         transform="matrix(1,0,0,-1,298.63787,443.0727)"
         style="fill:#cccccc;stroke:#999999;stroke-width:4;stroke-miterlimit:4;stroke-dasharray:none"
         inkscape:export-filename="/Users/till/uni/ws14/dima/mastersthesis/thesis/gilbert/images/rowPartitioning.png"
         inkscape:export-xdpi="300"
         inkscape:export-ydpi="300">
        <path
           sodipodi:nodetypes="cc"
           inkscape:connector-curvature="0"
           id="path4016"
           d="m 200,172.36218 240,0"
           style="fill:#cccccc;stroke:#999999;stroke-width:4;stroke-linecap:butt;stroke-linejoin:miter;stroke-miterlimit:4;stroke-opacity:1;stroke-dasharray:none" />
        <path
           sodipodi:nodetypes="cc"
           inkscape:connector-curvature="0"
           id="path4018"
           d="m 200,232.36218 240,0"
           style="fill:#cccccc;stroke:#999999;stroke-width:4;stroke-linecap:butt;stroke-linejoin:miter;stroke-miterlimit:4;stroke-opacity:1;stroke-dasharray:none" />
        <path
           sodipodi:nodetypes="cc"
           inkscape:connector-curvature="0"
           id="path4020"
           d="m 200,292.36218 240,0"
           style="fill:#cccccc;stroke:#999999;stroke-width:4;stroke-linecap:butt;stroke-linejoin:miter;stroke-miterlimit:4;stroke-opacity:1;stroke-dasharray:none" />
        <path
           inkscape:connector-curvature="0"
           id="path4022"
           d="m 260,112.36218 0,240"
           style="fill:#cccccc;stroke:#999999;stroke-width:4;stroke-linecap:butt;stroke-linejoin:miter;stroke-miterlimit:4;stroke-opacity:1;stroke-dasharray:none" />
        <path
           inkscape:connector-curvature="0"
           id="path4024"
           d="m 320,112.36218 0,240"
           style="fill:#cccccc;stroke:#999999;stroke-width:4;stroke-linecap:butt;stroke-linejoin:miter;stroke-miterlimit:4;stroke-opacity:1;stroke-dasharray:none" />
        <path
           inkscape:connector-curvature="0"
           id="path4026"
           d="m 380,112.36218 0,240"
           style="fill:#cccccc;stroke:#999999;stroke-width:4;stroke-linecap:butt;stroke-linejoin:miter;stroke-miterlimit:4;stroke-opacity:1;stroke-dasharray:none" />
      </g>
      <rect
         style="fill:none;stroke:#666666;stroke-width:4;stroke-linejoin:round;stroke-miterlimit:4;stroke-dasharray:none;stroke-dashoffset:0"
         id="rect4028"
         width="240"
         height="240"
         x="498.63788"
         y="-330.71051"
         ry="5"
         transform="scale(1,-1)"
         inkscape:export-filename="/Users/till/uni/ws14/dima/mastersthesis/thesis/gilbert/images/rowPartitioning.png"
         inkscape:export-xdpi="300"
         inkscape:export-ydpi="300" />
    </g>
    <text
       xml:space="preserve"
       style="font-size:50px;font-style:normal;font-weight:normal;line-height:125%;letter-spacing:0px;word-spacing:0px;fill:#000000;fill-opacity:1;stroke:none;font-family:Sans;opacity:1"
       x="300"
       y="392.36218"
       id="text4030"
       sodipodi:linespacing="125%"
       inkscape:export-filename="/Users/till/uni/ws14/dima/mastersthesis/thesis/gilbert/images/rowMM.png"
       inkscape:export-xdpi="300"
       inkscape:export-ydpi="300"><tspan
         sodipodi:role="line"
         id="tspan4032"
         x="300"
         y="392.36218">A</tspan></text>
    <text
       xml:space="preserve"
       style="font-size:50px;font-style:normal;font-weight:normal;line-height:125%;letter-spacing:0px;word-spacing:0px;fill:#000000;fill-opacity:1;stroke:none;font-family:Sans"
       x="630"
       y="392.36218"
       id="text4034"
       sodipodi:linespacing="125%"
       inkscape:export-filename="/Users/till/uni/ws14/dima/mastersthesis/thesis/gilbert/images/rowMM.png"
       inkscape:export-xdpi="300"
       inkscape:export-ydpi="300"><tspan
         sodipodi:role="line"
         id="tspan4036"
         x="630"
         y="392.36218">B</tspan></text>
    <text
       xml:space="preserve"
       style="font-size:50px;font-style:normal;font-weight:normal;line-height:125%;letter-spacing:0px;word-spacing:0px;fill:#000000;fill-opacity:1;stroke:none;font-family:Sans;opacity:1"
       x="794.2821"
       y="227.18576"
       id="text4038"
       sodipodi:linespacing="125%"
       inkscape:export-filename="/Users/till/uni/ws14/dima/mastersthesis/thesis/gilbert/images/rowMM.png"
       inkscape:export-xdpi="300"
       inkscape:export-ydpi="300"><tspan
         sodipodi:role="line"
         id="tspan4040"
         x="794.2821"
         y="227.18576">=</tspan></text>
    <text
       xml:space="preserve"
       style="font-size:50px;font-style:normal;font-weight:normal;line-height:125%;letter-spacing:0px;word-spacing:0px;fill:#000000;fill-opacity:1;stroke:none;font-family:Sans;opacity:1"
       x="467.65421"
       y="225.20822"
       id="text4042"
       sodipodi:linespacing="125%"
       inkscape:export-filename="/Users/till/uni/ws14/dima/mastersthesis/thesis/gilbert/images/rowMM.png"
       inkscape:export-xdpi="300"
       inkscape:export-ydpi="300"><tspan
         sodipodi:role="line"
         id="tspan4044"
         x="467.65421"
         y="225.20822">x</tspan></text>
    <path
       style="fill:#00ff00;fill-opacity:1;stroke:none;opacity:1"
       d="m 863.22331,181.32382 0,-28.53681 28.53681,0 28.53681,0 0,28.53681 0,28.53681 -28.53681,0 -28.53681,0 0,-28.53681 z"
       id="path4046"
       inkscape:connector-curvature="0"
       inkscape:export-filename="/Users/till/uni/ws14/dima/mastersthesis/thesis/gilbert/images/rowMM.png"
       inkscape:export-xdpi="300"
       inkscape:export-ydpi="300" />
    <path
       style="fill:#00ff00;fill-opacity:1;stroke:none;opacity:1"
       d="m 923.32738,181.32382 0,-28.53681 28.53681,0 28.53681,0 0,28.53681 0,28.53681 -28.53681,0 -28.53681,0 0,-28.53681 z"
       id="path4048"
       inkscape:connector-curvature="0"
       inkscape:export-filename="/Users/till/uni/ws14/dima/mastersthesis/thesis/gilbert/images/rowMM.png"
       inkscape:export-xdpi="300"
       inkscape:export-ydpi="300" />
    <path
       style="fill:#00ff00;fill-opacity:1;stroke:none;opacity:1"
       d="m 982.92638,181.32382 0,-28.53681 28.53682,0 28.5368,0 0,28.53681 0,28.53681 -28.5368,0 -28.53682,0 0,-28.53681 z"
       id="path4050"
       inkscape:connector-curvature="0"
       inkscape:export-filename="/Users/till/uni/ws14/dima/mastersthesis/thesis/gilbert/images/rowMM.png"
       inkscape:export-xdpi="300"
       inkscape:export-ydpi="300" />
    <path
       style="fill:#00ff00;fill-opacity:1;stroke:none;opacity:1"
       d="m 1043.0305,181.32382 0,-28.53681 28.5368,0 28.5368,0 0,28.53681 0,28.53681 -28.5368,0 -28.5368,0 0,-28.53681 z"
       id="path4052"
       inkscape:connector-curvature="0"
       inkscape:export-filename="/Users/till/uni/ws14/dima/mastersthesis/thesis/gilbert/images/rowMM.png"
       inkscape:export-xdpi="300"
       inkscape:export-ydpi="300" />
    <path
       style="fill:#ff0000;fill-opacity:1;stroke:none;opacity:0.3"
       d="m 863.22331,241.4279 0,-28.53681 28.53681,0 28.53681,0 0,28.53681 0,28.53681 -28.53681,0 -28.53681,0 0,-28.53681 z"
       id="path4054"
       inkscape:connector-curvature="0"
       inkscape:export-filename="/Users/till/uni/ws14/dima/mastersthesis/thesis/gilbert/images/rowMM.png"
       inkscape:export-xdpi="300"
       inkscape:export-ydpi="300" />
    <path
       style="fill:#ff0000;fill-opacity:1;stroke:none;opacity:0.3"
       d="m 923.32738,241.4279 0,-28.53681 28.53681,0 28.53681,0 0,28.53681 0,28.53681 -28.53681,0 -28.53681,0 0,-28.53681 z"
       id="path4056"
       inkscape:connector-curvature="0"
       inkscape:export-filename="/Users/till/uni/ws14/dima/mastersthesis/thesis/gilbert/images/rowMM.png"
       inkscape:export-xdpi="300"
       inkscape:export-ydpi="300" />
    <path
       style="fill:#ff0000;fill-opacity:1;stroke:none;opacity:0.3"
       d="m 982.92638,241.4279 0,-28.53681 28.53682,0 28.5368,0 0,28.53681 0,28.53681 -28.5368,0 -28.53682,0 0,-28.53681 z"
       id="path4058"
       inkscape:connector-curvature="0"
       inkscape:export-filename="/Users/till/uni/ws14/dima/mastersthesis/thesis/gilbert/images/rowMM.png"
       inkscape:export-xdpi="300"
       inkscape:export-ydpi="300" />
    <path
       style="fill:#ff0000;fill-opacity:1;stroke:none;opacity:0.3"
       d="m 1043.0305,241.4279 0,-28.53681 28.5368,0 28.5368,0 0,28.53681 0,28.53681 -28.5368,0 -28.5368,0 0,-28.53681 z"
       id="path4060"
       inkscape:connector-curvature="0"
       inkscape:export-filename="/Users/till/uni/ws14/dima/mastersthesis/thesis/gilbert/images/rowMM.png"
       inkscape:export-xdpi="300"
       inkscape:export-ydpi="300" />
    <path
       style="fill:#0000ff;fill-opacity:1;stroke:none;opacity:0.3"
       d="m 864.8964,329.16689 c -1.52792,-0.97154 -1.67309,-3.54753 -1.67309,-29.6881 l 0,-26.48363 28.53681,0 28.53681,0 0,28.28427 0,28.28428 -27.40039,-0.008 c -15.07021,-0.004 -27.67028,-0.17934 -28.00014,-0.38909 l 0,0 z"
       id="path4062"
       inkscape:connector-curvature="0"
       inkscape:export-filename="/Users/till/uni/ws14/dima/mastersthesis/thesis/gilbert/images/rowMM.png"
       inkscape:export-xdpi="300"
       inkscape:export-ydpi="300" />
    <path
       style="fill:#0000ff;fill-opacity:1;stroke:none;opacity:0.3"
       d="m 923.32738,301.27943 0,-28.28427 28.53681,0 28.53681,0 0,28.28427 0,28.28428 -28.53681,0 -28.53681,0 0,-28.28428 z"
       id="path4064"
       inkscape:connector-curvature="0"
       inkscape:export-filename="/Users/till/uni/ws14/dima/mastersthesis/thesis/gilbert/images/rowMM.png"
       inkscape:export-xdpi="300"
       inkscape:export-ydpi="300" />
    <path
       style="fill:#0000ff;fill-opacity:1;stroke:none;opacity:0.3"
       d="m 982.92638,301.27943 0,-28.28427 28.53682,0 28.5368,0 0,28.28427 0,28.28428 -28.5368,0 -28.53682,0 0,-28.28428 z"
       id="path4066"
       inkscape:connector-curvature="0"
       inkscape:export-filename="/Users/till/uni/ws14/dima/mastersthesis/thesis/gilbert/images/rowMM.png"
       inkscape:export-xdpi="300"
       inkscape:export-ydpi="300" />
    <path
       style="fill:#0000ff;fill-opacity:1;stroke:none;opacity:0.3"
       d="m 1043.0305,301.27943 0,-28.28427 28.5368,0 28.5368,0 0,26.48363 c 0,26.14057 -0.1452,28.71656 -1.6731,29.6881 -0.3299,0.20974 -12.9299,0.38483 -28.0001,0.38908 l -27.4004,0.008 0,-28.28428 z"
       id="path4068"
       inkscape:connector-curvature="0"
       inkscape:export-filename="/Users/till/uni/ws14/dima/mastersthesis/thesis/gilbert/images/rowMM.png"
       inkscape:export-xdpi="300"
       inkscape:export-ydpi="300" />
    <path
       style="fill:#ffff00;fill-opacity:1;stroke:none;opacity:0.3"
       d="m 863.22331,123.82049 c 0,-18.25155 0.17563,-26.94495 0.56706,-28.067789 0.32868,-0.94286 1.08562,-1.823823 1.80064,-2.095675 0.70276,-0.267186 12.73866,-0.469009 27.96975,-0.469009 l 26.73617,0 0,28.536803 0,28.53681 -28.53681,0 -28.53681,0 0,-26.44114 z"
       id="path4070"
       inkscape:connector-curvature="0"
       inkscape:export-filename="/Users/till/uni/ws14/dima/mastersthesis/thesis/gilbert/images/rowMM.png"
       inkscape:export-xdpi="300"
       inkscape:export-ydpi="300" />
    <path
       style="fill:#ffff00;fill-opacity:1;stroke:none;opacity:0.3"
       d="m 923.32738,121.72482 0,-28.536803 28.53681,0 28.53681,0 0,28.536803 0,28.53681 -28.53681,0 -28.53681,0 0,-28.53681 z"
       id="path4072"
       inkscape:connector-curvature="0"
       inkscape:export-filename="/Users/till/uni/ws14/dima/mastersthesis/thesis/gilbert/images/rowMM.png"
       inkscape:export-xdpi="300"
       inkscape:export-ydpi="300" />
    <path
       style="fill:#ffff00;fill-opacity:1;stroke:none;opacity:0.3"
       d="m 982.92638,121.72482 0,-28.536803 28.53682,0 28.5368,0 0,28.536803 0,28.53681 -28.5368,0 -28.53682,0 0,-28.53681 z"
       id="path4074"
       inkscape:connector-curvature="0"
       inkscape:export-filename="/Users/till/uni/ws14/dima/mastersthesis/thesis/gilbert/images/rowMM.png"
       inkscape:export-xdpi="300"
       inkscape:export-ydpi="300" />
    <path
       style="fill:#ffff00;fill-opacity:1;stroke:none;opacity:0.3"
       d="m 1043.0305,121.72482 0,-28.536803 26.7361,0 c 15.2311,0 27.267,0.201823 27.9698,0.469009 0.715,0.271852 1.4719,1.152815 1.8006,2.095675 0.3914,1.122839 0.5671,9.816239 0.5671,28.067789 l 0,26.44114 -28.5368,0 -28.5368,0 0,-28.53681 z"
       id="path4076"
       inkscape:connector-curvature="0"
       inkscape:export-filename="/Users/till/uni/ws14/dima/mastersthesis/thesis/gilbert/images/rowMM.png"
       inkscape:export-xdpi="300"
       inkscape:export-ydpi="300" />
    <g
       id="g4078"
       transform="matrix(1,0,0,-1,661.66833,443.89853)"
       style="fill:#cccccc;stroke:#999999;stroke-width:4;stroke-miterlimit:4;stroke-dasharray:none;opacity:1"
       inkscape:export-filename="/Users/till/uni/ws14/dima/mastersthesis/thesis/gilbert/images/rowMM.png"
       inkscape:export-xdpi="300"
       inkscape:export-ydpi="300">
      <path
         sodipodi:nodetypes="cc"
         inkscape:connector-curvature="0"
         id="path4080"
         d="m 200,172.36218 240,0"
         style="fill:#cccccc;stroke:#999999;stroke-width:4;stroke-linecap:butt;stroke-linejoin:miter;stroke-miterlimit:4;stroke-opacity:1;stroke-dasharray:none" />
      <path
         sodipodi:nodetypes="cc"
         inkscape:connector-curvature="0"
         id="path4082"
         d="m 200,232.36218 240,0"
         style="fill:#cccccc;stroke:#999999;stroke-width:4;stroke-linecap:butt;stroke-linejoin:miter;stroke-miterlimit:4;stroke-opacity:1;stroke-dasharray:none" />
      <path
         sodipodi:nodetypes="cc"
         inkscape:connector-curvature="0"
         id="path4084"
         d="m 200,292.36218 240,0"
         style="fill:#cccccc;stroke:#999999;stroke-width:4;stroke-linecap:butt;stroke-linejoin:miter;stroke-miterlimit:4;stroke-opacity:1;stroke-dasharray:none" />
      <path
         inkscape:connector-curvature="0"
         id="path4086"
         d="m 260,112.36218 0,240"
         style="fill:#cccccc;stroke:#999999;stroke-width:4;stroke-linecap:butt;stroke-linejoin:miter;stroke-miterlimit:4;stroke-opacity:1;stroke-dasharray:none" />
      <path
         inkscape:connector-curvature="0"
         id="path4088"
         d="m 320,112.36218 0,240"
         style="fill:#cccccc;stroke:#999999;stroke-width:4;stroke-linecap:butt;stroke-linejoin:miter;stroke-miterlimit:4;stroke-opacity:1;stroke-dasharray:none" />
      <path
         inkscape:connector-curvature="0"
         id="path4090"
         d="m 380,112.36218 0,240"
         style="fill:#cccccc;stroke:#999999;stroke-width:4;stroke-linecap:butt;stroke-linejoin:miter;stroke-miterlimit:4;stroke-opacity:1;stroke-dasharray:none" />
    </g>
    <rect
       style="fill:none;stroke:#666666;stroke-width:4;stroke-linejoin:round;stroke-miterlimit:4;stroke-dasharray:none;stroke-dashoffset:0;opacity:1"
       id="rect4092"
       width="240"
       height="240"
       x="861.66833"
       y="-331.53635"
       ry="5"
       transform="scale(1,-1)"
       inkscape:export-filename="/Users/till/uni/ws14/dima/mastersthesis/thesis/gilbert/images/rowMM.png"
       inkscape:export-xdpi="300"
       inkscape:export-ydpi="300" />
    <text
       xml:space="preserve"
       style="font-size:50px;font-style:normal;font-weight:normal;line-height:125%;letter-spacing:0px;word-spacing:0px;fill:#000000;fill-opacity:1;stroke:none;font-family:Sans;opacity:1"
       x="140"
       y="192.36218"
       id="text4094"
       sodipodi:linespacing="125%"
       inkscape:export-filename="/Users/till/uni/ws14/dima/mastersthesis/thesis/gilbert/images/rowMM.png"
       inkscape:export-xdpi="300"
       inkscape:export-ydpi="300"><tspan
         sodipodi:role="line"
         id="tspan4096"
         x="140"
         y="192.36218">r</tspan></text>
    <text
       xml:space="preserve"
       style="font-size:28px;font-style:normal;font-weight:normal;line-height:125%;letter-spacing:0px;word-spacing:0px;fill:#000000;fill-opacity:1;stroke:none;font-family:Sans"
       x="142.75134"
       y="364.82513"
       id="text4098"
       sodipodi:linespacing="125%"><tspan
         sodipodi:role="line"
         id="tspan4100"
         x="142.75134"
         y="364.82513" /></text>
    <text
       xml:space="preserve"
       style="font-size:28px;font-style:normal;font-weight:normal;line-height:125%;letter-spacing:0px;word-spacing:0px;fill:#000000;fill-opacity:1;stroke:none;font-family:Sans"
       x="960"
       y="392.36218"
       id="text5162"
       sodipodi:linespacing="125%"
       inkscape:export-filename="/Users/till/uni/ws14/dima/mastersthesis/thesis/gilbert/images/rowMM.png"
       inkscape:export-xdpi="300"
       inkscape:export-ydpi="300"><tspan
         sodipodi:role="line"
         id="tspan5164"
         x="960"
         y="392.36218"
         style="font-size:50px">C</tspan></text>
  </g>
</svg>
